<mxfile host="app.diagrams.net" modified="2022-03-22T21:13:50.158Z" agent="5.0 (Macintosh; Intel Mac OS X 10_15_7) AppleWebKit/537.36 (KHTML, like Gecko) Chrome/99.0.4844.51 Safari/537.36" etag="o1MeAx_avj8W7uA6t1_P" version="17.1.1" type="github">
  <diagram id="Tz2HhyrUHWOXNev4stH1" name="Page-2">
    <mxGraphModel dx="2580" dy="-109" grid="0" gridSize="10" guides="1" tooltips="1" connect="1" arrows="1" fold="1" page="0" pageScale="1" pageWidth="850" pageHeight="1100" math="0" shadow="0">
      <root>
        <mxCell id="myIwbRaZVC_E4C9uunCO-0" />
        <mxCell id="myIwbRaZVC_E4C9uunCO-1" parent="myIwbRaZVC_E4C9uunCO-0" />
        <mxCell id="KFF7oI3oYcerpHkxQwP5-1" value="" style="rounded=1;whiteSpace=wrap;html=1;labelBackgroundColor=none;fillColor=#e1d5e7;strokeColor=#9673a6;fontSize=13;" vertex="1" parent="myIwbRaZVC_E4C9uunCO-1">
          <mxGeometry x="1001.47" y="2399" width="1158.53" height="544.75" as="geometry" />
        </mxCell>
        <mxCell id="KFF7oI3oYcerpHkxQwP5-180" value="3P" style="rounded=0;whiteSpace=wrap;html=1;fillColor=#dae8fc;strokeColor=#6c8ebf;fontSize=13;" vertex="1" parent="myIwbRaZVC_E4C9uunCO-1">
          <mxGeometry x="1980" y="2416.75" width="130" height="507" as="geometry" />
        </mxCell>
        <mxCell id="KFF7oI3oYcerpHkxQwP5-170" value="" style="rounded=1;whiteSpace=wrap;html=1;fontSize=13;" vertex="1" parent="myIwbRaZVC_E4C9uunCO-1">
          <mxGeometry x="481.47" y="2398.75" width="40" height="550" as="geometry" />
        </mxCell>
        <mxCell id="nC5BWbBNHWPFv3tiznkC-10" value="" style="rounded=1;whiteSpace=wrap;html=1;labelBackgroundColor=none;fillColor=#e1d5e7;strokeColor=#9673a6;fontSize=13;" parent="myIwbRaZVC_E4C9uunCO-1" vertex="1">
          <mxGeometry x="999" y="1515.25" width="991" height="544.75" as="geometry" />
        </mxCell>
        <mxCell id="q525oqmR9Ik2567Cov87-82" value="" style="rounded=0;whiteSpace=wrap;html=1;fillColor=#d5e8d4;strokeColor=#82b366;fontSize=13;" parent="myIwbRaZVC_E4C9uunCO-1" vertex="1">
          <mxGeometry x="1020" y="1540" width="298" height="500" as="geometry" />
        </mxCell>
        <mxCell id="FsGYFDfkbAL3ZRBcVbpy-31" value="" style="rounded=1;whiteSpace=wrap;html=1;fillColor=#e1d5e7;dashed=1;strokeColor=#9673a6;fontSize=13;" parent="myIwbRaZVC_E4C9uunCO-1" vertex="1">
          <mxGeometry x="1031.5" y="1661" width="158.5" height="229" as="geometry" />
        </mxCell>
        <mxCell id="6MZSM7XvLLBCz90r0ZZN-89" value="" style="rounded=0;whiteSpace=wrap;html=1;fillColor=#dae8fc;strokeColor=#6c8ebf;fontSize=13;" parent="myIwbRaZVC_E4C9uunCO-1" vertex="1">
          <mxGeometry x="1470" y="1536" width="229" height="504" as="geometry" />
        </mxCell>
        <mxCell id="q525oqmR9Ik2567Cov87-46" value="" style="rounded=0;whiteSpace=wrap;html=1;fillColor=#d5e8d4;strokeColor=#82b366;fontSize=13;" parent="myIwbRaZVC_E4C9uunCO-1" vertex="1">
          <mxGeometry x="500.55" y="1540" width="459.45" height="500" as="geometry" />
        </mxCell>
        <mxCell id="6MZSM7XvLLBCz90r0ZZN-74" value="" style="rounded=1;whiteSpace=wrap;html=1;fillColor=#e1d5e7;dashed=1;strokeColor=#9673a6;fontSize=13;" parent="myIwbRaZVC_E4C9uunCO-1" vertex="1">
          <mxGeometry x="761" y="1655.54" width="163.72" height="230.46" as="geometry" />
        </mxCell>
        <mxCell id="q525oqmR9Ik2567Cov87-49" value="" style="rounded=0;whiteSpace=wrap;html=1;fillColor=#f5f5f5;strokeColor=#666666;fontColor=#333333;fontSize=13;" parent="myIwbRaZVC_E4C9uunCO-1" vertex="1">
          <mxGeometry x="-243" y="1540" width="177" height="500" as="geometry" />
        </mxCell>
        <mxCell id="q525oqmR9Ik2567Cov87-47" value="" style="rounded=0;whiteSpace=wrap;html=1;fillColor=#dae8fc;strokeColor=#6c8ebf;fontSize=13;" parent="myIwbRaZVC_E4C9uunCO-1" vertex="1">
          <mxGeometry x="76.59" y="1540" width="240" height="500" as="geometry" />
        </mxCell>
        <mxCell id="q525oqmR9Ik2567Cov87-51" value="Scenario 1" style="edgeStyle=orthogonalEdgeStyle;rounded=0;orthogonalLoop=1;jettySize=auto;html=1;entryX=0.5;entryY=1;entryDx=0;entryDy=0;fontSize=13;" parent="myIwbRaZVC_E4C9uunCO-1" source="6WOh82OjY7P1tJpJxM6a-67" target="q525oqmR9Ik2567Cov87-2" edge="1">
          <mxGeometry relative="1" as="geometry" />
        </mxCell>
        <mxCell id="6WOh82OjY7P1tJpJxM6a-67" value="" style="shape=mxgraph.signs.healthcare.mri;html=1;fillColor=#f8cecc;strokeColor=#b85450;verticalLabelPosition=bottom;verticalAlign=top;align=center;fontSize=13;" parent="myIwbRaZVC_E4C9uunCO-1" vertex="1">
          <mxGeometry x="-190.35000000000002" y="1848.39" width="70.35" height="64.61" as="geometry" />
        </mxCell>
        <mxCell id="q525oqmR9Ik2567Cov87-13" value="" style="edgeStyle=orthogonalEdgeStyle;rounded=0;orthogonalLoop=1;jettySize=auto;html=1;fontSize=13;" parent="myIwbRaZVC_E4C9uunCO-1" source="q525oqmR9Ik2567Cov87-2" target="q525oqmR9Ik2567Cov87-19" edge="1">
          <mxGeometry relative="1" as="geometry">
            <mxPoint x="149.59000000000015" y="1784.18" as="targetPoint" />
            <Array as="points">
              <mxPoint x="150" y="1780" />
              <mxPoint x="150" y="1780" />
            </Array>
          </mxGeometry>
        </mxCell>
        <mxCell id="q525oqmR9Ik2567Cov87-14" value="CMOVE main" style="edgeLabel;html=1;align=center;verticalAlign=middle;resizable=0;points=[];fontSize=13;" parent="q525oqmR9Ik2567Cov87-13" vertex="1" connectable="0">
          <mxGeometry x="-0.1089" y="2" relative="1" as="geometry">
            <mxPoint as="offset" />
          </mxGeometry>
        </mxCell>
        <mxCell id="q525oqmR9Ik2567Cov87-68" value="6" style="edgeLabel;html=1;align=center;verticalAlign=middle;resizable=0;points=[];fontSize=13;" parent="q525oqmR9Ik2567Cov87-13" vertex="1" connectable="0">
          <mxGeometry x="0.6129" y="-2" relative="1" as="geometry">
            <mxPoint as="offset" />
          </mxGeometry>
        </mxCell>
        <mxCell id="q525oqmR9Ik2567Cov87-2" value="PACS&amp;nbsp;" style="shape=datastore;whiteSpace=wrap;html=1;fontSize=13;fillColor=#1ba1e2;strokeColor=#006EAF;fontColor=#ffffff;" parent="myIwbRaZVC_E4C9uunCO-1" vertex="1">
          <mxGeometry x="-189.18" y="1753" width="68" height="62.36" as="geometry" />
        </mxCell>
        <mxCell id="q525oqmR9Ik2567Cov87-3" value="/execute" style="shape=image;html=1;verticalAlign=top;verticalLabelPosition=bottom;labelBackgroundColor=none;imageAspect=0;aspect=fixed;image=https://cdn4.iconfinder.com/data/icons/web-development-5/500/api-code-window-128.png;fontSize=13;" parent="myIwbRaZVC_E4C9uunCO-1" vertex="1">
          <mxGeometry x="521" y="1603" width="34" height="34" as="geometry" />
        </mxCell>
        <mxCell id="q525oqmR9Ik2567Cov87-10" value="Invoker Service" style="edgeStyle=orthogonalEdgeStyle;rounded=0;orthogonalLoop=1;jettySize=auto;html=1;entryX=0;entryY=0.5;entryDx=0;entryDy=0;exitX=1;exitY=0.5;exitDx=0;exitDy=0;fontSize=13;" parent="myIwbRaZVC_E4C9uunCO-1" source="q525oqmR9Ik2567Cov87-8" target="q525oqmR9Ik2567Cov87-3" edge="1">
          <mxGeometry relative="1" as="geometry">
            <mxPoint x="105.59999999999991" y="1720" as="targetPoint" />
            <Array as="points">
              <mxPoint x="390" y="1620" />
              <mxPoint x="390" y="1620" />
            </Array>
          </mxGeometry>
        </mxCell>
        <mxCell id="q525oqmR9Ik2567Cov87-69" value="3" style="edgeLabel;html=1;align=center;verticalAlign=middle;resizable=0;points=[];fontSize=13;" parent="q525oqmR9Ik2567Cov87-10" vertex="1" connectable="0">
          <mxGeometry x="-0.5352" relative="1" as="geometry">
            <mxPoint as="offset" />
          </mxGeometry>
        </mxCell>
        <mxCell id="q525oqmR9Ik2567Cov87-5" value="" style="shape=step;perimeter=stepPerimeter;whiteSpace=wrap;html=1;fixedSize=1;fillColor=#f5f5f5;strokeColor=#666666;fontColor=#333333;fontSize=13;" parent="myIwbRaZVC_E4C9uunCO-1" vertex="1">
          <mxGeometry x="112.44" y="1600" width="59.5" height="40" as="geometry" />
        </mxCell>
        <mxCell id="q525oqmR9Ik2567Cov87-6" value="" style="shape=step;perimeter=stepPerimeter;whiteSpace=wrap;html=1;fixedSize=1;fillColor=#f5f5f5;strokeColor=#666666;fontColor=#333333;fontSize=13;" parent="myIwbRaZVC_E4C9uunCO-1" vertex="1">
          <mxGeometry x="152.04" y="1600" width="59.5" height="40" as="geometry" />
        </mxCell>
        <mxCell id="q525oqmR9Ik2567Cov87-8" value="" style="shape=step;perimeter=stepPerimeter;whiteSpace=wrap;html=1;fixedSize=1;fillColor=#ffe6cc;strokeColor=#d79b00;fontSize=13;" parent="myIwbRaZVC_E4C9uunCO-1" vertex="1">
          <mxGeometry x="191.94" y="1600" width="59.5" height="40" as="geometry" />
        </mxCell>
        <mxCell id="q525oqmR9Ik2567Cov87-11" value="Call PACS DCM endpoints" style="edgeStyle=orthogonalEdgeStyle;rounded=0;orthogonalLoop=1;jettySize=auto;html=1;exitX=0.75;exitY=1;exitDx=0;exitDy=0;fontSize=13;" parent="myIwbRaZVC_E4C9uunCO-1" source="q525oqmR9Ik2567Cov87-37" target="q525oqmR9Ik2567Cov87-15" edge="1">
          <mxGeometry x="0.124" relative="1" as="geometry">
            <mxPoint x="115.69999999999982" y="1650" as="sourcePoint" />
            <mxPoint x="-44.680000000000064" y="1740" as="targetPoint" />
            <Array as="points">
              <mxPoint x="623" y="1680" />
              <mxPoint x="-48" y="1680" />
              <mxPoint x="-48" y="1747" />
            </Array>
            <mxPoint as="offset" />
          </mxGeometry>
        </mxCell>
        <mxCell id="q525oqmR9Ik2567Cov87-67" value="5" style="edgeLabel;html=1;align=center;verticalAlign=middle;resizable=0;points=[];fontSize=13;" parent="q525oqmR9Ik2567Cov87-11" vertex="1" connectable="0">
          <mxGeometry x="-0.8385" y="2" relative="1" as="geometry">
            <mxPoint as="offset" />
          </mxGeometry>
        </mxCell>
        <mxCell id="q525oqmR9Ik2567Cov87-15" value="AET" style="shape=image;html=1;verticalAlign=top;verticalLabelPosition=bottom;labelBackgroundColor=none;imageAspect=0;aspect=fixed;image=https://cdn4.iconfinder.com/data/icons/web-development-5/500/api-code-window-128.png;fontSize=13;" parent="myIwbRaZVC_E4C9uunCO-1" vertex="1">
          <mxGeometry x="-122.00000000000006" y="1730" width="34" height="34" as="geometry" />
        </mxCell>
        <mxCell id="r5pqU8U0AgEEiw9FuOvZ-11" value="" style="edgeStyle=orthogonalEdgeStyle;rounded=0;orthogonalLoop=1;jettySize=auto;html=1;entryX=0;entryY=0.5;entryDx=0;entryDy=0;fontSize=13;" parent="myIwbRaZVC_E4C9uunCO-1" source="q525oqmR9Ik2567Cov87-19" target="u3qSGLMM-_wDBJlbKK_Q-0" edge="1">
          <mxGeometry relative="1" as="geometry">
            <Array as="points">
              <mxPoint x="745" y="1705" />
            </Array>
          </mxGeometry>
        </mxCell>
        <mxCell id="r5pqU8U0AgEEiw9FuOvZ-12" value="7" style="edgeLabel;html=1;align=center;verticalAlign=middle;resizable=0;points=[];fontSize=13;" parent="r5pqU8U0AgEEiw9FuOvZ-11" connectable="0" vertex="1">
          <mxGeometry x="0.1336" y="1" relative="1" as="geometry">
            <mxPoint y="1" as="offset" />
          </mxGeometry>
        </mxCell>
        <mxCell id="q525oqmR9Ik2567Cov87-19" value="AET" style="shape=image;html=1;verticalAlign=top;verticalLabelPosition=bottom;labelBackgroundColor=none;imageAspect=0;aspect=fixed;image=https://cdn4.iconfinder.com/data/icons/web-development-5/500/api-code-window-128.png;fontSize=13;" parent="myIwbRaZVC_E4C9uunCO-1" vertex="1">
          <mxGeometry x="740" y="1758.5" width="34" height="34" as="geometry" />
        </mxCell>
        <mxCell id="q525oqmR9Ik2567Cov87-63" value="" style="edgeStyle=orthogonalEdgeStyle;rounded=0;orthogonalLoop=1;jettySize=auto;html=1;entryX=0;entryY=0.5;entryDx=0;entryDy=0;fontSize=13;" parent="myIwbRaZVC_E4C9uunCO-1" source="q525oqmR9Ik2567Cov87-28" target="q525oqmR9Ik2567Cov87-83" edge="1">
          <mxGeometry relative="1" as="geometry">
            <mxPoint x="936" y="1784" as="targetPoint" />
          </mxGeometry>
        </mxCell>
        <mxCell id="q525oqmR9Ik2567Cov87-75" value="8" style="edgeLabel;html=1;align=center;verticalAlign=middle;resizable=0;points=[];fontSize=13;" parent="q525oqmR9Ik2567Cov87-63" vertex="1" connectable="0">
          <mxGeometry x="-0.0018" y="-2" relative="1" as="geometry">
            <mxPoint x="1" as="offset" />
          </mxGeometry>
        </mxCell>
        <mxCell id="q525oqmR9Ik2567Cov87-28" value="XT&lt;br style=&quot;font-size: 13px;&quot;&gt;CC" style="shape=datastore;whiteSpace=wrap;html=1;fontSize=13;fillColor=#1ba1e2;strokeColor=#006EAF;fontColor=#ffffff;" parent="myIwbRaZVC_E4C9uunCO-1" vertex="1">
          <mxGeometry x="802.07" y="1753" width="68" height="62.36" as="geometry" />
        </mxCell>
        <mxCell id="q525oqmR9Ik2567Cov87-30" value="AET" style="shape=image;html=1;verticalAlign=top;verticalLabelPosition=bottom;labelBackgroundColor=none;imageAspect=0;aspect=fixed;image=https://cdn4.iconfinder.com/data/icons/web-development-5/500/api-code-window-128.png;fontSize=13;" parent="myIwbRaZVC_E4C9uunCO-1" vertex="1">
          <mxGeometry x="867.4200000000001" y="1730.54" width="34" height="34" as="geometry" />
        </mxCell>
        <mxCell id="q525oqmR9Ik2567Cov87-32" value="" style="edgeStyle=orthogonalEdgeStyle;rounded=0;orthogonalLoop=1;jettySize=auto;html=1;fontSize=13;" parent="myIwbRaZVC_E4C9uunCO-1" source="q525oqmR9Ik2567Cov87-31" target="q525oqmR9Ik2567Cov87-2" edge="1">
          <mxGeometry relative="1" as="geometry" />
        </mxCell>
        <mxCell id="q525oqmR9Ik2567Cov87-65" value="1" style="edgeLabel;html=1;align=center;verticalAlign=middle;resizable=0;points=[];fontSize=13;" parent="q525oqmR9Ik2567Cov87-32" vertex="1" connectable="0">
          <mxGeometry x="-0.044" y="2" relative="1" as="geometry">
            <mxPoint as="offset" />
          </mxGeometry>
        </mxCell>
        <mxCell id="q525oqmR9Ik2567Cov87-35" value="" style="edgeStyle=orthogonalEdgeStyle;rounded=0;orthogonalLoop=1;jettySize=auto;html=1;entryX=0;entryY=0.5;entryDx=0;entryDy=0;fontSize=13;" parent="myIwbRaZVC_E4C9uunCO-1" source="q525oqmR9Ik2567Cov87-31" target="q525oqmR9Ik2567Cov87-33" edge="1">
          <mxGeometry relative="1" as="geometry">
            <mxPoint x="-1.1800000000000637" y="1623" as="targetPoint" />
          </mxGeometry>
        </mxCell>
        <mxCell id="q525oqmR9Ik2567Cov87-66" value="2" style="edgeLabel;html=1;align=center;verticalAlign=middle;resizable=0;points=[];fontSize=13;" parent="q525oqmR9Ik2567Cov87-35" vertex="1" connectable="0">
          <mxGeometry x="-0.2093" relative="1" as="geometry">
            <mxPoint as="offset" />
          </mxGeometry>
        </mxCell>
        <mxCell id="q525oqmR9Ik2567Cov87-31" value="SCM" style="rounded=0;whiteSpace=wrap;html=1;fillColor=#dae8fc;strokeColor=#6c8ebf;fontSize=13;" parent="myIwbRaZVC_E4C9uunCO-1" vertex="1">
          <mxGeometry x="-187" y="1593" width="65" height="54" as="geometry" />
        </mxCell>
        <mxCell id="q525oqmR9Ik2567Cov87-33" value="EO" style="shape=image;html=1;verticalAlign=top;verticalLabelPosition=bottom;labelBackgroundColor=none;imageAspect=0;aspect=fixed;image=https://cdn4.iconfinder.com/data/icons/web-development-5/500/api-code-window-128.png;fontSize=13;" parent="myIwbRaZVC_E4C9uunCO-1" vertex="1">
          <mxGeometry x="86.58999999999995" y="1603" width="34" height="34" as="geometry" />
        </mxCell>
        <mxCell id="q525oqmR9Ik2567Cov87-36" value="" style="shape=step;perimeter=stepPerimeter;whiteSpace=wrap;html=1;fixedSize=1;fillColor=#f5f5f5;strokeColor=#666666;fontColor=#333333;fontSize=13;" parent="myIwbRaZVC_E4C9uunCO-1" vertex="1">
          <mxGeometry x="541.05" y="1600" width="59.5" height="40" as="geometry" />
        </mxCell>
        <mxCell id="q525oqmR9Ik2567Cov87-37" value="" style="shape=step;perimeter=stepPerimeter;whiteSpace=wrap;html=1;fixedSize=1;fillColor=#f5f5f5;strokeColor=#666666;fontColor=#333333;fontSize=13;" parent="myIwbRaZVC_E4C9uunCO-1" vertex="1">
          <mxGeometry x="580.65" y="1600" width="59.5" height="40" as="geometry" />
        </mxCell>
        <mxCell id="q525oqmR9Ik2567Cov87-38" value="" style="shape=step;perimeter=stepPerimeter;whiteSpace=wrap;html=1;fixedSize=1;fillColor=#ffe6cc;strokeColor=#d79b00;fontSize=13;" parent="myIwbRaZVC_E4C9uunCO-1" vertex="1">
          <mxGeometry x="620.55" y="1600" width="59.5" height="40" as="geometry" />
        </mxCell>
        <mxCell id="q525oqmR9Ik2567Cov87-54" value="Cloud&amp;nbsp;Connector&amp;nbsp;" style="text;html=1;align=center;verticalAlign=middle;resizable=0;points=[];autosize=1;fontStyle=1;fontSize=13;labelBackgroundColor=none;fontColor=#333333;" parent="myIwbRaZVC_E4C9uunCO-1" vertex="1">
          <mxGeometry x="673.32" y="1544" width="119" height="20" as="geometry" />
        </mxCell>
        <mxCell id="q525oqmR9Ik2567Cov87-55" value="&lt;span style=&quot;font-size: 13px;&quot;&gt;Edison&amp;nbsp;&lt;/span&gt;&lt;span style=&quot;font-size: 13px;&quot;&gt;Orchestrator (PO, WO)&lt;/span&gt;" style="text;html=1;align=center;verticalAlign=middle;resizable=0;points=[];autosize=1;fontStyle=1;fontSize=13;labelBackgroundColor=none;fontColor=#333333;" parent="myIwbRaZVC_E4C9uunCO-1" vertex="1">
          <mxGeometry x="101.39" y="2020" width="197" height="20" as="geometry" />
        </mxCell>
        <mxCell id="q525oqmR9Ik2567Cov87-56" value="&lt;span style=&quot;font-size: 13px;&quot;&gt;Source Systems&lt;/span&gt;" style="text;html=1;align=center;verticalAlign=middle;resizable=0;points=[];autosize=1;fontStyle=1;fontSize=13;labelBackgroundColor=none;fontColor=#333333;" parent="myIwbRaZVC_E4C9uunCO-1" vertex="1">
          <mxGeometry x="-210" y="2013" width="111" height="20" as="geometry" />
        </mxCell>
        <mxCell id="q525oqmR9Ik2567Cov87-57" value="" style="shape=step;perimeter=stepPerimeter;whiteSpace=wrap;html=1;fixedSize=1;fillColor=#f5f5f5;strokeColor=#666666;fontColor=#333333;fontSize=13;" parent="myIwbRaZVC_E4C9uunCO-1" vertex="1">
          <mxGeometry x="765.72" y="1685.54" width="61" height="40" as="geometry" />
        </mxCell>
        <mxCell id="u3qSGLMM-_wDBJlbKK_Q-5" value="" style="edgeStyle=orthogonalEdgeStyle;rounded=0;orthogonalLoop=1;jettySize=auto;html=1;dashed=1;entryX=0.5;entryY=0;entryDx=0;entryDy=0;fontSize=13;" parent="myIwbRaZVC_E4C9uunCO-1" source="q525oqmR9Ik2567Cov87-58" target="q525oqmR9Ik2567Cov87-28" edge="1">
          <mxGeometry relative="1" as="geometry" />
        </mxCell>
        <mxCell id="q525oqmR9Ik2567Cov87-58" value="" style="shape=step;perimeter=stepPerimeter;whiteSpace=wrap;html=1;fixedSize=1;fillColor=#f5f5f5;strokeColor=#666666;fontColor=#333333;fontSize=13;" parent="myIwbRaZVC_E4C9uunCO-1" vertex="1">
          <mxGeometry x="805.3199999999999" y="1685.54" width="59.5" height="40" as="geometry" />
        </mxCell>
        <mxCell id="q525oqmR9Ik2567Cov87-59" value="" style="shape=step;perimeter=stepPerimeter;whiteSpace=wrap;html=1;fixedSize=1;fillColor=#ffe6cc;strokeColor=#d79b00;fontSize=13;" parent="myIwbRaZVC_E4C9uunCO-1" vertex="1">
          <mxGeometry x="845.22" y="1685.54" width="59.5" height="40" as="geometry" />
        </mxCell>
        <mxCell id="q525oqmR9Ik2567Cov87-60" value="&lt;font style=&quot;font-size: 13px;&quot;&gt;XT Scenario&lt;/font&gt;" style="text;html=1;align=center;verticalAlign=middle;resizable=0;points=[];autosize=1;fontStyle=1;fontSize=13;labelBackgroundColor=none;fontColor=#333333;" parent="myIwbRaZVC_E4C9uunCO-1" vertex="1">
          <mxGeometry x="796.9200000000001" y="1663.54" width="85" height="20" as="geometry" />
        </mxCell>
        <mxCell id="r5pqU8U0AgEEiw9FuOvZ-8" value="" style="edgeStyle=orthogonalEdgeStyle;rounded=0;orthogonalLoop=1;jettySize=auto;html=1;exitX=0.5;exitY=0.5;exitDx=0;exitDy=0;exitPerimeter=0;fontSize=13;" parent="myIwbRaZVC_E4C9uunCO-1" source="q525oqmR9Ik2567Cov87-61" edge="1">
          <mxGeometry relative="1" as="geometry">
            <mxPoint x="602" y="1450" as="targetPoint" />
          </mxGeometry>
        </mxCell>
        <mxCell id="r5pqU8U0AgEEiw9FuOvZ-9" value="4" style="edgeLabel;html=1;align=center;verticalAlign=middle;resizable=0;points=[];fontSize=13;" parent="r5pqU8U0AgEEiw9FuOvZ-8" connectable="0" vertex="1">
          <mxGeometry x="0.1654" y="1" relative="1" as="geometry">
            <mxPoint as="offset" />
          </mxGeometry>
        </mxCell>
        <mxCell id="q525oqmR9Ik2567Cov87-61" value="&lt;font style=&quot;font-size: 13px;&quot;&gt;EAI Push/pre-processing Scenario&lt;/font&gt;" style="text;html=1;align=center;verticalAlign=middle;resizable=0;points=[];autosize=1;fontStyle=1;fontSize=13;labelBackgroundColor=none;fontColor=#333333;" parent="myIwbRaZVC_E4C9uunCO-1" vertex="1">
          <mxGeometry x="492" y="1580" width="223" height="20" as="geometry" />
        </mxCell>
        <mxCell id="q525oqmR9Ik2567Cov87-80" value="" style="edgeStyle=orthogonalEdgeStyle;rounded=0;orthogonalLoop=1;jettySize=auto;html=1;entryX=0.431;entryY=1.103;entryDx=0;entryDy=0;entryPerimeter=0;fontSize=13;" parent="myIwbRaZVC_E4C9uunCO-1" source="q525oqmR9Ik2567Cov87-76" target="q525oqmR9Ik2567Cov87-60" edge="1">
          <mxGeometry relative="1" as="geometry">
            <mxPoint x="815.5" y="1620" as="targetPoint" />
          </mxGeometry>
        </mxCell>
        <mxCell id="q525oqmR9Ik2567Cov87-81" value="10" style="edgeLabel;html=1;align=center;verticalAlign=middle;resizable=0;points=[];fontSize=13;" parent="q525oqmR9Ik2567Cov87-80" vertex="1" connectable="0">
          <mxGeometry x="0.2567" y="-1" relative="1" as="geometry">
            <mxPoint x="1" as="offset" />
          </mxGeometry>
        </mxCell>
        <mxCell id="R7VJXDeurN7EVdI3svxh-6" value="To CC scenario" style="edgeLabel;html=1;align=center;verticalAlign=middle;resizable=0;points=[];fontSize=13;" parent="q525oqmR9Ik2567Cov87-80" vertex="1" connectable="0">
          <mxGeometry x="-0.6477" y="-1" relative="1" as="geometry">
            <mxPoint x="22" as="offset" />
          </mxGeometry>
        </mxCell>
        <mxCell id="FsGYFDfkbAL3ZRBcVbpy-36" value="" style="edgeStyle=orthogonalEdgeStyle;rounded=0;orthogonalLoop=1;jettySize=auto;html=1;entryX=0;entryY=0.5;entryDx=0;entryDy=0;dashed=1;exitX=0;exitY=0.5;exitDx=0;exitDy=0;fontSize=13;" parent="myIwbRaZVC_E4C9uunCO-1" source="hUA2dAzTewmcBaVwPkn6-7" target="FsGYFDfkbAL3ZRBcVbpy-32" edge="1">
          <mxGeometry relative="1" as="geometry">
            <Array as="points">
              <mxPoint x="870" y="1967" />
              <mxPoint x="870" y="1925" />
            </Array>
            <mxPoint x="634.4250000000002" y="1881" as="sourcePoint" />
          </mxGeometry>
        </mxCell>
        <mxCell id="q525oqmR9Ik2567Cov87-76" value="" style="shape=step;perimeter=stepPerimeter;whiteSpace=wrap;html=1;fixedSize=1;fillColor=#ffe6cc;strokeColor=#d79b00;fontSize=13;" parent="myIwbRaZVC_E4C9uunCO-1" vertex="1">
          <mxGeometry x="656" y="1600" width="59.5" height="40" as="geometry" />
        </mxCell>
        <mxCell id="q525oqmR9Ik2567Cov87-78" value="/process" style="shape=image;html=1;verticalAlign=top;verticalLabelPosition=bottom;labelBackgroundColor=none;imageAspect=0;aspect=fixed;image=https://cdn4.iconfinder.com/data/icons/web-development-5/500/api-code-window-128.png;fontSize=13;" parent="myIwbRaZVC_E4C9uunCO-1" vertex="1">
          <mxGeometry x="1140" y="1604" width="34" height="34" as="geometry" />
        </mxCell>
        <mxCell id="q525oqmR9Ik2567Cov87-87" value="" style="edgeStyle=orthogonalEdgeStyle;rounded=0;orthogonalLoop=1;jettySize=auto;html=1;fontSize=13;" parent="myIwbRaZVC_E4C9uunCO-1" source="q525oqmR9Ik2567Cov87-83" target="q525oqmR9Ik2567Cov87-86" edge="1">
          <mxGeometry relative="1" as="geometry">
            <Array as="points">
              <mxPoint x="1210" y="1784" />
              <mxPoint x="1210" y="1843" />
            </Array>
          </mxGeometry>
        </mxCell>
        <mxCell id="r5pqU8U0AgEEiw9FuOvZ-14" value="9" style="edgeLabel;html=1;align=center;verticalAlign=middle;resizable=0;points=[];fontSize=13;" parent="q525oqmR9Ik2567Cov87-87" connectable="0" vertex="1">
          <mxGeometry x="0.6652" y="-1" relative="1" as="geometry">
            <mxPoint as="offset" />
          </mxGeometry>
        </mxCell>
        <mxCell id="q525oqmR9Ik2567Cov87-83" value="XT&lt;br style=&quot;font-size: 13px;&quot;&gt;SC" style="shape=datastore;whiteSpace=wrap;html=1;fontSize=13;fillColor=#1ba1e2;strokeColor=#006EAF;fontColor=#ffffff;" parent="myIwbRaZVC_E4C9uunCO-1" vertex="1">
          <mxGeometry x="1051" y="1753" width="68" height="62.36" as="geometry" />
        </mxCell>
        <mxCell id="q525oqmR9Ik2567Cov87-84" value="Site Connector&amp;nbsp;" style="text;html=1;align=center;verticalAlign=middle;resizable=0;points=[];autosize=1;fontStyle=1;fontSize=13;labelBackgroundColor=none;fontColor=#333333;" parent="myIwbRaZVC_E4C9uunCO-1" vertex="1">
          <mxGeometry x="1117" y="1546" width="106" height="20" as="geometry" />
        </mxCell>
        <mxCell id="nC5BWbBNHWPFv3tiznkC-6" value="T5" style="edgeStyle=orthogonalEdgeStyle;rounded=0;orthogonalLoop=1;jettySize=auto;html=1;entryX=0;entryY=0.5;entryDx=0;entryDy=0;fontSize=13;" parent="myIwbRaZVC_E4C9uunCO-1" source="q525oqmR9Ik2567Cov87-85" target="nC5BWbBNHWPFv3tiznkC-7" edge="1">
          <mxGeometry relative="1" as="geometry">
            <mxPoint x="1450" y="1790" as="targetPoint" />
          </mxGeometry>
        </mxCell>
        <mxCell id="r5pqU8U0AgEEiw9FuOvZ-15" value="" style="edgeStyle=orthogonalEdgeStyle;rounded=0;orthogonalLoop=1;jettySize=auto;html=1;fontSize=13;" parent="myIwbRaZVC_E4C9uunCO-1" source="q525oqmR9Ik2567Cov87-85" target="oseVc4HdwnWh8EgqZ8Fy-0" edge="1">
          <mxGeometry relative="1" as="geometry" />
        </mxCell>
        <mxCell id="r5pqU8U0AgEEiw9FuOvZ-16" value="T1" style="edgeLabel;html=1;align=center;verticalAlign=middle;resizable=0;points=[];fontSize=13;" parent="r5pqU8U0AgEEiw9FuOvZ-15" connectable="0" vertex="1">
          <mxGeometry x="-0.3246" y="-2" relative="1" as="geometry">
            <mxPoint as="offset" />
          </mxGeometry>
        </mxCell>
        <mxCell id="q525oqmR9Ik2567Cov87-85" value="TruePACS EA" style="shape=datastore;whiteSpace=wrap;html=1;fontSize=13;fillColor=#1ba1e2;strokeColor=#006EAF;fontColor=#ffffff;" parent="myIwbRaZVC_E4C9uunCO-1" vertex="1">
          <mxGeometry x="1335" y="1693.8200000000002" width="68" height="62.36" as="geometry" />
        </mxCell>
        <mxCell id="r5pqU8U0AgEEiw9FuOvZ-17" value="T5" style="edgeStyle=orthogonalEdgeStyle;rounded=0;orthogonalLoop=1;jettySize=auto;html=1;fontSize=13;" parent="myIwbRaZVC_E4C9uunCO-1" source="q525oqmR9Ik2567Cov87-86" target="6MZSM7XvLLBCz90r0ZZN-89" edge="1">
          <mxGeometry relative="1" as="geometry" />
        </mxCell>
        <mxCell id="q525oqmR9Ik2567Cov87-86" value="OnPrem&lt;br style=&quot;font-size: 13px;&quot;&gt;EA" style="shape=datastore;whiteSpace=wrap;html=1;fontSize=13;fillColor=#1ba1e2;strokeColor=#006EAF;fontColor=#ffffff;" parent="myIwbRaZVC_E4C9uunCO-1" vertex="1">
          <mxGeometry x="1335" y="1812.18" width="68" height="62.36" as="geometry" />
        </mxCell>
        <mxCell id="6MZSM7XvLLBCz90r0ZZN-0" value="" style="outlineConnect=0;dashed=0;verticalLabelPosition=bottom;verticalAlign=top;align=center;html=1;shape=mxgraph.aws3.cloud_2;fillColor=#F58534;gradientColor=none;fontSize=13;" parent="myIwbRaZVC_E4C9uunCO-1" vertex="1">
          <mxGeometry x="1875" y="1480" width="45" height="42.5" as="geometry" />
        </mxCell>
        <mxCell id="6MZSM7XvLLBCz90r0ZZN-103" value="" style="edgeStyle=orthogonalEdgeStyle;rounded=0;orthogonalLoop=1;jettySize=auto;html=1;entryX=0;entryY=0.5;entryDx=0;entryDy=0;exitX=1;exitY=0.5;exitDx=0;exitDy=0;fontSize=13;" parent="myIwbRaZVC_E4C9uunCO-1" source="q525oqmR9Ik2567Cov87-78" target="oseVc4HdwnWh8EgqZ8Fy-0" edge="1">
          <mxGeometry relative="1" as="geometry">
            <mxPoint x="1280" y="1620" as="sourcePoint" />
          </mxGeometry>
        </mxCell>
        <mxCell id="r5pqU8U0AgEEiw9FuOvZ-18" value="11" style="edgeLabel;html=1;align=center;verticalAlign=middle;resizable=0;points=[];fontSize=13;" parent="6MZSM7XvLLBCz90r0ZZN-103" connectable="0" vertex="1">
          <mxGeometry x="-0.2966" relative="1" as="geometry">
            <mxPoint as="offset" />
          </mxGeometry>
        </mxCell>
        <mxCell id="6MZSM7XvLLBCz90r0ZZN-86" value="" style="shape=step;perimeter=stepPerimeter;whiteSpace=wrap;html=1;fixedSize=1;fillColor=#f5f5f5;strokeColor=#666666;fontColor=#333333;fontSize=13;" parent="myIwbRaZVC_E4C9uunCO-1" vertex="1">
          <mxGeometry x="1039" y="1685" width="59.5" height="40" as="geometry" />
        </mxCell>
        <mxCell id="6MZSM7XvLLBCz90r0ZZN-87" value="" style="shape=step;perimeter=stepPerimeter;whiteSpace=wrap;html=1;fixedSize=1;fillColor=#f5f5f5;strokeColor=#666666;fontColor=#333333;fontSize=13;" parent="myIwbRaZVC_E4C9uunCO-1" vertex="1">
          <mxGeometry x="1078.6" y="1685" width="59.5" height="40" as="geometry" />
        </mxCell>
        <mxCell id="6MZSM7XvLLBCz90r0ZZN-88" value="" style="shape=step;perimeter=stepPerimeter;whiteSpace=wrap;html=1;fixedSize=1;fillColor=#ffe6cc;strokeColor=#d79b00;fontSize=13;" parent="myIwbRaZVC_E4C9uunCO-1" vertex="1">
          <mxGeometry x="1118.5" y="1685" width="59.5" height="40" as="geometry" />
        </mxCell>
        <mxCell id="6MZSM7XvLLBCz90r0ZZN-92" value="Main" style="shape=step;perimeter=stepPerimeter;whiteSpace=wrap;html=1;fixedSize=1;fillColor=#f5f5f5;strokeColor=#666666;fontColor=#333333;fontSize=13;" parent="myIwbRaZVC_E4C9uunCO-1" vertex="1">
          <mxGeometry x="1496.8999999999999" y="1601" width="59.5" height="40" as="geometry" />
        </mxCell>
        <mxCell id="nC5BWbBNHWPFv3tiznkC-4" value="T3" style="edgeStyle=orthogonalEdgeStyle;rounded=0;orthogonalLoop=1;jettySize=auto;html=1;exitX=0;exitY=0.75;exitDx=0;exitDy=0;fontSize=13;" parent="myIwbRaZVC_E4C9uunCO-1" source="6MZSM7XvLLBCz90r0ZZN-93" target="nC5BWbBNHWPFv3tiznkC-3" edge="1">
          <mxGeometry relative="1" as="geometry">
            <Array as="points">
              <mxPoint x="1563" y="1670" />
              <mxPoint x="1617" y="1670" />
            </Array>
          </mxGeometry>
        </mxCell>
        <mxCell id="6MZSM7XvLLBCz90r0ZZN-93" value="3P" style="shape=step;perimeter=stepPerimeter;whiteSpace=wrap;html=1;fixedSize=1;fillColor=#f8cecc;strokeColor=#b85450;fontSize=13;" parent="myIwbRaZVC_E4C9uunCO-1" vertex="1">
          <mxGeometry x="1547.6499999999999" y="1630" width="59.5" height="25.54" as="geometry" />
        </mxCell>
        <mxCell id="FsGYFDfkbAL3ZRBcVbpy-15" value="T9" style="edgeStyle=orthogonalEdgeStyle;rounded=0;orthogonalLoop=1;jettySize=auto;html=1;fontSize=13;" parent="myIwbRaZVC_E4C9uunCO-1" source="6MZSM7XvLLBCz90r0ZZN-94" target="FsGYFDfkbAL3ZRBcVbpy-1" edge="1">
          <mxGeometry x="-0.0028" relative="1" as="geometry">
            <Array as="points">
              <mxPoint x="1617" y="1620" />
              <mxPoint x="1785" y="1620" />
            </Array>
            <mxPoint as="offset" />
          </mxGeometry>
        </mxCell>
        <mxCell id="6MZSM7XvLLBCz90r0ZZN-94" value="" style="shape=step;perimeter=stepPerimeter;whiteSpace=wrap;html=1;fixedSize=1;fillColor=#f8cecc;strokeColor=#b85450;fontSize=13;" parent="myIwbRaZVC_E4C9uunCO-1" vertex="1">
          <mxGeometry x="1587.55" y="1630" width="59.5" height="25.54" as="geometry" />
        </mxCell>
        <mxCell id="6MZSM7XvLLBCz90r0ZZN-98" value="AET" style="shape=image;html=1;verticalAlign=top;verticalLabelPosition=bottom;labelBackgroundColor=none;imageAspect=0;aspect=fixed;image=https://cdn4.iconfinder.com/data/icons/web-development-5/500/api-code-window-128.png;fontSize=13;" parent="myIwbRaZVC_E4C9uunCO-1" vertex="1">
          <mxGeometry x="1114" y="1742" width="34" height="34" as="geometry" />
        </mxCell>
        <mxCell id="6MZSM7XvLLBCz90r0ZZN-99" value="EO" style="shape=image;html=1;verticalAlign=top;verticalLabelPosition=bottom;labelBackgroundColor=none;imageAspect=0;aspect=fixed;image=https://cdn4.iconfinder.com/data/icons/web-development-5/500/api-code-window-128.png;fontSize=13;" parent="myIwbRaZVC_E4C9uunCO-1" vertex="1">
          <mxGeometry x="1475.2" y="1604" width="34" height="34" as="geometry" />
        </mxCell>
        <mxCell id="6MZSM7XvLLBCz90r0ZZN-100" value="&lt;span style=&quot;font-size: 13px;&quot;&gt;Edison&amp;nbsp;&lt;/span&gt;&lt;span style=&quot;font-size: 13px;&quot;&gt;Orchestrator (WO)&lt;/span&gt;" style="text;html=1;align=center;verticalAlign=middle;resizable=0;points=[];autosize=1;fontStyle=1;fontSize=13;labelBackgroundColor=none;fontColor=#333333;" parent="myIwbRaZVC_E4C9uunCO-1" vertex="1">
          <mxGeometry x="1337" y="2043" width="171" height="20" as="geometry" />
        </mxCell>
        <mxCell id="6MZSM7XvLLBCz90r0ZZN-101" value="AET" style="shape=image;html=1;verticalAlign=top;verticalLabelPosition=bottom;labelBackgroundColor=none;imageAspect=0;aspect=fixed;image=https://cdn4.iconfinder.com/data/icons/web-development-5/500/api-code-window-128.png;fontSize=13;" parent="myIwbRaZVC_E4C9uunCO-1" vertex="1">
          <mxGeometry x="1387" y="1702" width="34" height="34" as="geometry" />
        </mxCell>
        <mxCell id="6MZSM7XvLLBCz90r0ZZN-104" value="" style="rounded=0;whiteSpace=wrap;html=1;fillColor=#dae8fc;strokeColor=#6c8ebf;fontSize=13;" parent="myIwbRaZVC_E4C9uunCO-1" vertex="1">
          <mxGeometry x="1800" y="1533" width="160" height="507" as="geometry" />
        </mxCell>
        <mxCell id="FsGYFDfkbAL3ZRBcVbpy-0" value="" style="endArrow=classic;html=1;entryX=0.5;entryY=0;entryDx=0;entryDy=0;strokeColor=#788AA3;startArrow=none;fontSize=13;" parent="myIwbRaZVC_E4C9uunCO-1" source="FsGYFDfkbAL3ZRBcVbpy-13" target="FsGYFDfkbAL3ZRBcVbpy-4" edge="1">
          <mxGeometry width="50" height="50" relative="1" as="geometry">
            <mxPoint x="1840.53" y="1577.9999999999998" as="sourcePoint" />
            <mxPoint x="1886.2" y="1578.5" as="targetPoint" />
          </mxGeometry>
        </mxCell>
        <mxCell id="FsGYFDfkbAL3ZRBcVbpy-1" value="/execute" style="shape=image;html=1;verticalAlign=top;verticalLabelPosition=bottom;labelBackgroundColor=none;imageAspect=0;aspect=fixed;image=https://cdn4.iconfinder.com/data/icons/web-development-5/500/api-code-window-128.png;fontSize=13;" parent="myIwbRaZVC_E4C9uunCO-1" vertex="1">
          <mxGeometry x="1759.53" y="1537.25" width="51" height="51" as="geometry" />
        </mxCell>
        <mxCell id="FsGYFDfkbAL3ZRBcVbpy-2" value="6.1" style="ellipse;whiteSpace=wrap;html=1;aspect=fixed;strokeWidth=2;fontFamily=Tahoma;spacingBottom=4;spacingRight=2;strokeColor=#9673a6;fillColor=#e1d5e7;fontSize=13;" parent="myIwbRaZVC_E4C9uunCO-1" vertex="1">
          <mxGeometry x="1829" y="1550.25" width="25" height="25" as="geometry" />
        </mxCell>
        <mxCell id="FsGYFDfkbAL3ZRBcVbpy-3" value="6.2" style="ellipse;whiteSpace=wrap;html=1;aspect=fixed;strokeWidth=2;fontFamily=Tahoma;spacingBottom=4;spacingRight=2;strokeColor=#9673a6;fillColor=#e1d5e7;fontSize=13;" parent="myIwbRaZVC_E4C9uunCO-1" vertex="1">
          <mxGeometry x="1829" y="1635.54" width="25" height="25" as="geometry" />
        </mxCell>
        <mxCell id="FsGYFDfkbAL3ZRBcVbpy-20" value="T13" style="edgeStyle=orthogonalEdgeStyle;rounded=0;orthogonalLoop=1;jettySize=auto;html=1;fontSize=13;" parent="myIwbRaZVC_E4C9uunCO-1" source="FsGYFDfkbAL3ZRBcVbpy-4" target="FsGYFDfkbAL3ZRBcVbpy-19" edge="1">
          <mxGeometry relative="1" as="geometry">
            <Array as="points">
              <mxPoint x="1720" y="1916" />
              <mxPoint x="1720" y="1916" />
            </Array>
          </mxGeometry>
        </mxCell>
        <mxCell id="FsGYFDfkbAL3ZRBcVbpy-4" value="6.5" style="ellipse;whiteSpace=wrap;html=1;aspect=fixed;strokeWidth=2;fontFamily=Tahoma;spacingBottom=4;spacingRight=2;strokeColor=#9673a6;fillColor=#e1d5e7;fontStyle=0;fontSize=13;" parent="myIwbRaZVC_E4C9uunCO-1" vertex="1">
          <mxGeometry x="1829.0000000000002" y="1903" width="25" height="25" as="geometry" />
        </mxCell>
        <mxCell id="FsGYFDfkbAL3ZRBcVbpy-5" value="Request" style="text;html=1;strokeColor=none;fillColor=none;align=center;verticalAlign=middle;whiteSpace=wrap;rounded=0;fontSize=13;" parent="myIwbRaZVC_E4C9uunCO-1" vertex="1">
          <mxGeometry x="1854" y="1555.25" width="68" height="20" as="geometry" />
        </mxCell>
        <mxCell id="FsGYFDfkbAL3ZRBcVbpy-6" value="Pull input resources" style="text;html=1;strokeColor=none;fillColor=none;align=center;verticalAlign=middle;whiteSpace=wrap;rounded=0;fontSize=13;" parent="myIwbRaZVC_E4C9uunCO-1" vertex="1">
          <mxGeometry x="1844.5" y="1635.54" width="85.5" height="20" as="geometry" />
        </mxCell>
        <mxCell id="FsGYFDfkbAL3ZRBcVbpy-24" value="T12" style="edgeStyle=orthogonalEdgeStyle;rounded=0;orthogonalLoop=1;jettySize=auto;html=1;entryX=0.5;entryY=1;entryDx=0;entryDy=0;entryPerimeter=0;fontSize=13;" parent="myIwbRaZVC_E4C9uunCO-1" source="FsGYFDfkbAL3ZRBcVbpy-7" target="nC5BWbBNHWPFv3tiznkC-0" edge="1">
          <mxGeometry relative="1" as="geometry">
            <mxPoint x="1765.4499999999998" y="1805.5" as="targetPoint" />
            <Array as="points">
              <mxPoint x="1668" y="1806" />
            </Array>
          </mxGeometry>
        </mxCell>
        <mxCell id="FsGYFDfkbAL3ZRBcVbpy-7" value="Push output&lt;br style=&quot;font-size: 13px;&quot;&gt;resources" style="text;html=1;strokeColor=none;fillColor=none;align=center;verticalAlign=middle;whiteSpace=wrap;rounded=0;fontSize=13;" parent="myIwbRaZVC_E4C9uunCO-1" vertex="1">
          <mxGeometry x="1845.45" y="1795.5" width="92.8" height="20" as="geometry" />
        </mxCell>
        <mxCell id="FsGYFDfkbAL3ZRBcVbpy-8" value="Response" style="text;html=1;strokeColor=none;fillColor=none;align=center;verticalAlign=middle;whiteSpace=wrap;rounded=0;fontSize=13;" parent="myIwbRaZVC_E4C9uunCO-1" vertex="1">
          <mxGeometry x="1854.0100000000002" y="1906.36" width="68.8" height="20" as="geometry" />
        </mxCell>
        <mxCell id="FsGYFDfkbAL3ZRBcVbpy-9" value="" style="endArrow=classic;html=1;exitX=1;exitY=0.5;exitDx=0;exitDy=0;entryX=0;entryY=0.5;entryDx=0;entryDy=0;fontSize=13;" parent="myIwbRaZVC_E4C9uunCO-1" source="FsGYFDfkbAL3ZRBcVbpy-1" target="FsGYFDfkbAL3ZRBcVbpy-2" edge="1">
          <mxGeometry width="50" height="50" relative="1" as="geometry">
            <mxPoint x="1788" y="1604.45" as="sourcePoint" />
            <mxPoint x="1838" y="1554.45" as="targetPoint" />
          </mxGeometry>
        </mxCell>
        <mxCell id="FsGYFDfkbAL3ZRBcVbpy-10" value="6.3" style="ellipse;whiteSpace=wrap;html=1;aspect=fixed;strokeWidth=2;fontFamily=Tahoma;spacingBottom=4;spacingRight=2;strokeColor=#9673a6;fillColor=#e1d5e7;fontSize=13;" parent="myIwbRaZVC_E4C9uunCO-1" vertex="1">
          <mxGeometry x="1829" y="1706.5" width="25" height="25" as="geometry" />
        </mxCell>
        <mxCell id="FsGYFDfkbAL3ZRBcVbpy-22" value="T11" style="edgeStyle=orthogonalEdgeStyle;rounded=0;orthogonalLoop=1;jettySize=auto;html=1;entryX=0.5;entryY=0;entryDx=0;entryDy=0;entryPerimeter=0;fontSize=13;" parent="myIwbRaZVC_E4C9uunCO-1" target="nC5BWbBNHWPFv3tiznkC-0" edge="1">
          <mxGeometry relative="1" as="geometry">
            <mxPoint x="1764.5" y="1719" as="targetPoint" />
            <mxPoint x="1830" y="1650" as="sourcePoint" />
          </mxGeometry>
        </mxCell>
        <mxCell id="FsGYFDfkbAL3ZRBcVbpy-11" value="Inference" style="text;html=1;strokeColor=none;fillColor=none;align=center;verticalAlign=middle;whiteSpace=wrap;rounded=0;fontSize=13;" parent="myIwbRaZVC_E4C9uunCO-1" vertex="1">
          <mxGeometry x="1844.5" y="1700" width="85.5" height="20" as="geometry" />
        </mxCell>
        <mxCell id="FsGYFDfkbAL3ZRBcVbpy-13" value="6.4" style="ellipse;whiteSpace=wrap;html=1;aspect=fixed;strokeWidth=2;fontFamily=Tahoma;spacingBottom=4;spacingRight=2;strokeColor=#9673a6;fillColor=#e1d5e7;fontSize=13;" parent="myIwbRaZVC_E4C9uunCO-1" vertex="1">
          <mxGeometry x="1829" y="1797.21" width="25" height="25" as="geometry" />
        </mxCell>
        <mxCell id="FsGYFDfkbAL3ZRBcVbpy-14" value="" style="endArrow=none;html=1;entryX=0.5;entryY=0;entryDx=0;entryDy=0;strokeColor=#788AA3;fontSize=13;" parent="myIwbRaZVC_E4C9uunCO-1" target="FsGYFDfkbAL3ZRBcVbpy-13" edge="1">
          <mxGeometry width="50" height="50" relative="1" as="geometry">
            <mxPoint x="1840.53" y="1577.9999999999998" as="sourcePoint" />
            <mxPoint x="1841.5000000000002" y="1901.5" as="targetPoint" />
          </mxGeometry>
        </mxCell>
        <mxCell id="FsGYFDfkbAL3ZRBcVbpy-30" value="13" style="edgeStyle=orthogonalEdgeStyle;rounded=0;orthogonalLoop=1;jettySize=auto;html=1;entryX=1;entryY=0.5;entryDx=0;entryDy=0;fontSize=13;" parent="myIwbRaZVC_E4C9uunCO-1" source="FsGYFDfkbAL3ZRBcVbpy-16" target="FsGYFDfkbAL3ZRBcVbpy-29" edge="1">
          <mxGeometry relative="1" as="geometry" />
        </mxCell>
        <mxCell id="oseVc4HdwnWh8EgqZ8Fy-6" value="Prediction Summary" style="edgeLabel;html=1;align=center;verticalAlign=middle;resizable=0;points=[];labelBackgroundColor=none;fontSize=13;" parent="FsGYFDfkbAL3ZRBcVbpy-30" vertex="1" connectable="0">
          <mxGeometry x="-0.1037" y="-1" relative="1" as="geometry">
            <mxPoint x="-4" y="14" as="offset" />
          </mxGeometry>
        </mxCell>
        <mxCell id="R7VJXDeurN7EVdI3svxh-29" value="T13.2" style="edgeStyle=orthogonalEdgeStyle;rounded=0;orthogonalLoop=1;jettySize=auto;html=1;fontSize=13;" parent="myIwbRaZVC_E4C9uunCO-1" source="FsGYFDfkbAL3ZRBcVbpy-16" target="q525oqmR9Ik2567Cov87-85" edge="1">
          <mxGeometry x="0.7469" relative="1" as="geometry">
            <Array as="points">
              <mxPoint x="1390" y="1920" />
            </Array>
            <mxPoint as="offset" />
          </mxGeometry>
        </mxCell>
        <mxCell id="FsGYFDfkbAL3ZRBcVbpy-16" value="Main" style="shape=step;perimeter=stepPerimeter;whiteSpace=wrap;html=1;fixedSize=1;fillColor=#f5f5f5;strokeColor=#666666;fontColor=#333333;direction=west;fontSize=13;" parent="myIwbRaZVC_E4C9uunCO-1" vertex="1">
          <mxGeometry x="1486.45" y="1907.0000000000002" width="59.5" height="40" as="geometry" />
        </mxCell>
        <mxCell id="nC5BWbBNHWPFv3tiznkC-9" value="T16" style="edgeStyle=orthogonalEdgeStyle;rounded=0;orthogonalLoop=1;jettySize=auto;html=1;entryX=0.5;entryY=1;entryDx=0;entryDy=0;exitX=0.5;exitY=1;exitDx=0;exitDy=0;fontSize=13;" parent="myIwbRaZVC_E4C9uunCO-1" source="FsGYFDfkbAL3ZRBcVbpy-18" target="nC5BWbBNHWPFv3tiznkC-3" edge="1">
          <mxGeometry relative="1" as="geometry">
            <mxPoint x="1584.35" y="1826.3600000000001" as="targetPoint" />
          </mxGeometry>
        </mxCell>
        <mxCell id="oseVc4HdwnWh8EgqZ8Fy-4" value="12" style="edgeStyle=orthogonalEdgeStyle;rounded=0;orthogonalLoop=1;jettySize=auto;html=1;entryX=0.5;entryY=0;entryDx=0;entryDy=0;fontSize=13;" parent="myIwbRaZVC_E4C9uunCO-1" source="FsGYFDfkbAL3ZRBcVbpy-17" target="FsGYFDfkbAL3ZRBcVbpy-29" edge="1">
          <mxGeometry x="0.4586" relative="1" as="geometry">
            <mxPoint x="1320" y="1930" as="targetPoint" />
            <Array as="points">
              <mxPoint x="1312" y="1905" />
              <mxPoint x="1312" y="1909" />
            </Array>
            <mxPoint as="offset" />
          </mxGeometry>
        </mxCell>
        <mxCell id="oseVc4HdwnWh8EgqZ8Fy-5" value="In Progress, Summary" style="edgeLabel;html=1;align=center;verticalAlign=middle;resizable=0;points=[];labelBackgroundColor=none;fontSize=13;" parent="oseVc4HdwnWh8EgqZ8Fy-4" vertex="1" connectable="0">
          <mxGeometry x="-0.1885" y="-1" relative="1" as="geometry">
            <mxPoint x="-14" y="-4" as="offset" />
          </mxGeometry>
        </mxCell>
        <mxCell id="FsGYFDfkbAL3ZRBcVbpy-17" value="" style="shape=step;perimeter=stepPerimeter;whiteSpace=wrap;html=1;fixedSize=1;fillColor=#f8cecc;strokeColor=#b85450;direction=west;fontSize=13;" parent="myIwbRaZVC_E4C9uunCO-1" vertex="1">
          <mxGeometry x="1547.65" y="1890" width="59.5" height="29.36" as="geometry" />
        </mxCell>
        <mxCell id="R7VJXDeurN7EVdI3svxh-19" value="T14" style="edgeStyle=orthogonalEdgeStyle;rounded=0;orthogonalLoop=1;jettySize=auto;html=1;exitX=0.25;exitY=1;exitDx=0;exitDy=0;fontSize=13;" parent="myIwbRaZVC_E4C9uunCO-1" source="FsGYFDfkbAL3ZRBcVbpy-18" target="R7VJXDeurN7EVdI3svxh-3" edge="1">
          <mxGeometry relative="1" as="geometry">
            <Array as="points">
              <mxPoint x="1632" y="1880" />
              <mxPoint x="1661" y="1880" />
            </Array>
          </mxGeometry>
        </mxCell>
        <mxCell id="FsGYFDfkbAL3ZRBcVbpy-18" value="" style="shape=step;perimeter=stepPerimeter;whiteSpace=wrap;html=1;fixedSize=1;fillColor=#f8cecc;strokeColor=#b85450;direction=west;fontSize=13;" parent="myIwbRaZVC_E4C9uunCO-1" vertex="1">
          <mxGeometry x="1587.55" y="1889.36" width="59.5" height="30" as="geometry" />
        </mxCell>
        <mxCell id="FsGYFDfkbAL3ZRBcVbpy-19" value="" style="shape=image;html=1;verticalAlign=top;verticalLabelPosition=bottom;labelBackgroundColor=none;imageAspect=0;aspect=fixed;image=https://cdn4.iconfinder.com/data/icons/web-development-5/500/api-code-window-128.png;fontSize=13;" parent="myIwbRaZVC_E4C9uunCO-1" vertex="1">
          <mxGeometry x="1654" y="1909.3600000000001" width="34" height="34" as="geometry" />
        </mxCell>
        <mxCell id="FsGYFDfkbAL3ZRBcVbpy-26" value="" style="shape=step;perimeter=stepPerimeter;whiteSpace=wrap;html=1;fixedSize=1;fillColor=#f5f5f5;strokeColor=#666666;fontColor=#333333;direction=west;fontSize=13;" parent="myIwbRaZVC_E4C9uunCO-1" vertex="1">
          <mxGeometry x="1140" y="1906.36" width="59.5" height="40" as="geometry" />
        </mxCell>
        <mxCell id="FsGYFDfkbAL3ZRBcVbpy-27" value="" style="shape=step;perimeter=stepPerimeter;whiteSpace=wrap;html=1;fixedSize=1;fillColor=#f5f5f5;strokeColor=#666666;fontColor=#333333;direction=west;fontSize=13;" parent="myIwbRaZVC_E4C9uunCO-1" vertex="1">
          <mxGeometry x="1179.6" y="1906.36" width="59.5" height="40" as="geometry" />
        </mxCell>
        <mxCell id="YBiQRps2gjAF7GqjluW7-5" value="" style="edgeStyle=orthogonalEdgeStyle;rounded=0;orthogonalLoop=1;jettySize=auto;html=1;fontSize=13;" parent="myIwbRaZVC_E4C9uunCO-1" source="FsGYFDfkbAL3ZRBcVbpy-28" target="YBiQRps2gjAF7GqjluW7-3" edge="1">
          <mxGeometry relative="1" as="geometry" />
        </mxCell>
        <mxCell id="FsGYFDfkbAL3ZRBcVbpy-28" value="" style="shape=step;perimeter=stepPerimeter;whiteSpace=wrap;html=1;fixedSize=1;fillColor=#ffe6cc;strokeColor=#d79b00;direction=west;fontSize=13;" parent="myIwbRaZVC_E4C9uunCO-1" vertex="1">
          <mxGeometry x="1220.5" y="1906.36" width="59.5" height="40" as="geometry" />
        </mxCell>
        <mxCell id="FsGYFDfkbAL3ZRBcVbpy-29" value="/response" style="shape=image;html=1;verticalAlign=top;verticalLabelPosition=bottom;labelBackgroundColor=none;imageAspect=0;aspect=fixed;image=https://cdn4.iconfinder.com/data/icons/web-development-5/500/api-code-window-128.png;fontSize=13;" parent="myIwbRaZVC_E4C9uunCO-1" vertex="1">
          <mxGeometry x="1278" y="1909.36" width="34" height="34" as="geometry" />
        </mxCell>
        <mxCell id="FsGYFDfkbAL3ZRBcVbpy-32" value="/status" style="shape=image;html=1;verticalAlign=top;verticalLabelPosition=bottom;labelBackgroundColor=none;imageAspect=0;aspect=fixed;image=https://cdn4.iconfinder.com/data/icons/web-development-5/500/api-code-window-128.png;fontSize=13;" parent="myIwbRaZVC_E4C9uunCO-1" vertex="1">
          <mxGeometry x="1110.5" y="1908.06" width="34" height="34" as="geometry" />
        </mxCell>
        <mxCell id="u3qSGLMM-_wDBJlbKK_Q-0" value="Push to cloud" style="shape=image;html=1;verticalAlign=top;verticalLabelPosition=bottom;labelBackgroundColor=none;imageAspect=0;aspect=fixed;image=https://cdn4.iconfinder.com/data/icons/web-development-5/500/api-code-window-128.png;fontSize=13;" parent="myIwbRaZVC_E4C9uunCO-1" vertex="1">
          <mxGeometry x="764.7199999999999" y="1688" width="34" height="34" as="geometry" />
        </mxCell>
        <mxCell id="u3qSGLMM-_wDBJlbKK_Q-1" value="" style="shape=step;perimeter=stepPerimeter;whiteSpace=wrap;html=1;fixedSize=1;fillColor=#f5f5f5;strokeColor=#666666;fontColor=#333333;fontSize=13;" parent="myIwbRaZVC_E4C9uunCO-1" vertex="1">
          <mxGeometry x="766.72" y="1825" width="61" height="40" as="geometry" />
        </mxCell>
        <mxCell id="u3qSGLMM-_wDBJlbKK_Q-2" value="" style="shape=step;perimeter=stepPerimeter;whiteSpace=wrap;html=1;fixedSize=1;fillColor=#f5f5f5;strokeColor=#666666;fontColor=#333333;fontSize=13;" parent="myIwbRaZVC_E4C9uunCO-1" vertex="1">
          <mxGeometry x="806.3199999999999" y="1825" width="59.5" height="40" as="geometry" />
        </mxCell>
        <mxCell id="R7VJXDeurN7EVdI3svxh-0" value="12&lt;br style=&quot;font-size: 13px;&quot;&gt;Pull from cloud" style="edgeStyle=orthogonalEdgeStyle;rounded=0;orthogonalLoop=1;jettySize=auto;html=1;fontSize=13;" parent="myIwbRaZVC_E4C9uunCO-1" source="u3qSGLMM-_wDBJlbKK_Q-3" target="q525oqmR9Ik2567Cov87-82" edge="1">
          <mxGeometry relative="1" as="geometry">
            <Array as="points">
              <mxPoint x="963" y="1845" />
              <mxPoint x="963" y="1800" />
            </Array>
          </mxGeometry>
        </mxCell>
        <mxCell id="u3qSGLMM-_wDBJlbKK_Q-3" value="" style="shape=step;perimeter=stepPerimeter;whiteSpace=wrap;html=1;fixedSize=1;fillColor=#ffe6cc;strokeColor=#d79b00;fontSize=13;" parent="myIwbRaZVC_E4C9uunCO-1" vertex="1">
          <mxGeometry x="846.22" y="1825" width="59.5" height="40" as="geometry" />
        </mxCell>
        <mxCell id="u3qSGLMM-_wDBJlbKK_Q-10" value="&lt;font style=&quot;font-size: 13px;&quot;&gt;EAI Pull/post-processing Scenario&lt;/font&gt;" style="text;html=1;align=center;verticalAlign=middle;resizable=0;points=[];autosize=1;fontStyle=1;fontSize=13;labelBackgroundColor=none;fontColor=#333333;" parent="myIwbRaZVC_E4C9uunCO-1" vertex="1">
          <mxGeometry x="586.7200000000001" y="1990" width="223" height="20" as="geometry" />
        </mxCell>
        <mxCell id="R7VJXDeurN7EVdI3svxh-12" value="T8" style="edgeStyle=orthogonalEdgeStyle;rounded=0;orthogonalLoop=1;jettySize=auto;html=1;fontSize=13;" parent="myIwbRaZVC_E4C9uunCO-1" source="YBiQRps2gjAF7GqjluW7-2" target="nC5BWbBNHWPFv3tiznkC-0" edge="1">
          <mxGeometry relative="1" as="geometry" />
        </mxCell>
        <mxCell id="YBiQRps2gjAF7GqjluW7-2" value="EHS" style="shape=datastore;whiteSpace=wrap;html=1;fontSize=13;fillColor=#1ba1e2;strokeColor=#006EAF;fontColor=#ffffff;" parent="myIwbRaZVC_E4C9uunCO-1" vertex="1">
          <mxGeometry x="1482.2" y="1723.5200000000002" width="68" height="62.36" as="geometry" />
        </mxCell>
        <mxCell id="YBiQRps2gjAF7GqjluW7-3" value="MongoDB" style="shape=datastore;whiteSpace=wrap;html=1;fontSize=13;fillColor=#ffcc99;strokeColor=#36393d;" parent="myIwbRaZVC_E4C9uunCO-1" vertex="1">
          <mxGeometry x="1216.25" y="1755.32" width="68" height="62.36" as="geometry" />
        </mxCell>
        <mxCell id="hUA2dAzTewmcBaVwPkn6-11" value="" style="edgeStyle=orthogonalEdgeStyle;rounded=0;orthogonalLoop=1;jettySize=auto;html=1;entryX=0.5;entryY=0;entryDx=0;entryDy=0;fontSize=13;" parent="myIwbRaZVC_E4C9uunCO-1" source="hUA2dAzTewmcBaVwPkn6-0" target="hUA2dAzTewmcBaVwPkn6-4" edge="1">
          <mxGeometry relative="1" as="geometry">
            <mxPoint x="-9.950000000000273" y="1966.06" as="targetPoint" />
          </mxGeometry>
        </mxCell>
        <mxCell id="hUA2dAzTewmcBaVwPkn6-0" value="" style="shape=step;perimeter=stepPerimeter;whiteSpace=wrap;html=1;fixedSize=1;fillColor=#f5f5f5;strokeColor=#666666;fontColor=#333333;direction=west;fontSize=13;" parent="myIwbRaZVC_E4C9uunCO-1" vertex="1">
          <mxGeometry x="137.63999999999993" y="1946.06" width="59.5" height="40" as="geometry" />
        </mxCell>
        <mxCell id="hUA2dAzTewmcBaVwPkn6-1" value="" style="shape=step;perimeter=stepPerimeter;whiteSpace=wrap;html=1;fixedSize=1;fillColor=#f5f5f5;strokeColor=#666666;fontColor=#333333;direction=west;fontSize=13;" parent="myIwbRaZVC_E4C9uunCO-1" vertex="1">
          <mxGeometry x="177.2399999999998" y="1946.06" width="59.5" height="40" as="geometry" />
        </mxCell>
        <mxCell id="hUA2dAzTewmcBaVwPkn6-2" value="" style="shape=step;perimeter=stepPerimeter;whiteSpace=wrap;html=1;fixedSize=1;fillColor=#ffe6cc;strokeColor=#d79b00;direction=west;fontSize=13;" parent="myIwbRaZVC_E4C9uunCO-1" vertex="1">
          <mxGeometry x="206.1399999999999" y="1946.06" width="59.5" height="40" as="geometry" />
        </mxCell>
        <mxCell id="hUA2dAzTewmcBaVwPkn6-3" value="/response" style="shape=image;html=1;verticalAlign=top;verticalLabelPosition=bottom;labelBackgroundColor=none;imageAspect=0;aspect=fixed;image=https://cdn4.iconfinder.com/data/icons/web-development-5/500/api-code-window-128.png;fontSize=13;" parent="myIwbRaZVC_E4C9uunCO-1" vertex="1">
          <mxGeometry x="265.6399999999999" y="1949.06" width="34" height="34" as="geometry" />
        </mxCell>
        <mxCell id="hUA2dAzTewmcBaVwPkn6-4" value="Summary&amp;nbsp;&lt;br style=&quot;font-size: 13px;&quot;&gt;Notification" style="shape=image;html=1;verticalAlign=top;verticalLabelPosition=bottom;labelBackgroundColor=none;imageAspect=0;aspect=fixed;image=https://cdn4.iconfinder.com/data/icons/web-development-5/500/api-code-window-128.png;direction=south;fontSize=13;" parent="myIwbRaZVC_E4C9uunCO-1" vertex="1">
          <mxGeometry x="-88.0000000000001" y="1949.06" width="34" height="34" as="geometry" />
        </mxCell>
        <mxCell id="hUA2dAzTewmcBaVwPkn6-12" value="" style="edgeStyle=orthogonalEdgeStyle;rounded=0;orthogonalLoop=1;jettySize=auto;html=1;entryX=1;entryY=0.5;entryDx=0;entryDy=0;fontSize=13;" parent="myIwbRaZVC_E4C9uunCO-1" source="hUA2dAzTewmcBaVwPkn6-5" target="hUA2dAzTewmcBaVwPkn6-3" edge="1">
          <mxGeometry relative="1" as="geometry" />
        </mxCell>
        <mxCell id="hUA2dAzTewmcBaVwPkn6-5" value="" style="shape=step;perimeter=stepPerimeter;whiteSpace=wrap;html=1;fixedSize=1;fillColor=#f5f5f5;strokeColor=#666666;fontColor=#333333;direction=west;fontSize=13;" parent="myIwbRaZVC_E4C9uunCO-1" vertex="1">
          <mxGeometry x="542" y="1946.06" width="59.5" height="40" as="geometry" />
        </mxCell>
        <mxCell id="hUA2dAzTewmcBaVwPkn6-6" value="" style="shape=step;perimeter=stepPerimeter;whiteSpace=wrap;html=1;fixedSize=1;fillColor=#f5f5f5;strokeColor=#666666;fontColor=#333333;direction=west;fontSize=13;" parent="myIwbRaZVC_E4C9uunCO-1" vertex="1">
          <mxGeometry x="600.55" y="1947" width="59.5" height="40" as="geometry" />
        </mxCell>
        <mxCell id="hUA2dAzTewmcBaVwPkn6-7" value="" style="shape=step;perimeter=stepPerimeter;whiteSpace=wrap;html=1;fixedSize=1;fillColor=#ffe6cc;strokeColor=#d79b00;direction=west;fontSize=13;" parent="myIwbRaZVC_E4C9uunCO-1" vertex="1">
          <mxGeometry x="640.1500000000001" y="1946.06" width="59.5" height="40" as="geometry" />
        </mxCell>
        <mxCell id="nC5BWbBNHWPFv3tiznkC-0" value="NFS" style="outlineConnect=0;dashed=0;verticalLabelPosition=bottom;verticalAlign=top;align=center;html=1;shape=mxgraph.aws3.efs;fillColor=#FF8000;gradientColor=none;labelBackgroundColor=none;fontSize=13;strokeColor=#000000;strokeWidth=1;" parent="myIwbRaZVC_E4C9uunCO-1" vertex="1">
          <mxGeometry x="1647.05" y="1729" width="41.03" height="51.4" as="geometry" />
        </mxCell>
        <mxCell id="nC5BWbBNHWPFv3tiznkC-5" value="" style="edgeStyle=orthogonalEdgeStyle;rounded=0;orthogonalLoop=1;jettySize=auto;html=1;entryX=0.5;entryY=0;entryDx=0;entryDy=0;fontSize=13;" parent="myIwbRaZVC_E4C9uunCO-1" source="nC5BWbBNHWPFv3tiznkC-3" target="6MZSM7XvLLBCz90r0ZZN-101" edge="1">
          <mxGeometry relative="1" as="geometry">
            <Array as="points">
              <mxPoint x="1404" y="1680" />
            </Array>
          </mxGeometry>
        </mxCell>
        <mxCell id="r5pqU8U0AgEEiw9FuOvZ-20" value="T4" style="edgeLabel;html=1;align=center;verticalAlign=middle;resizable=0;points=[];fontSize=13;" parent="nC5BWbBNHWPFv3tiznkC-5" connectable="0" vertex="1">
          <mxGeometry x="-0.4461" y="-1" relative="1" as="geometry">
            <mxPoint as="offset" />
          </mxGeometry>
        </mxCell>
        <mxCell id="R7VJXDeurN7EVdI3svxh-22" value="T17" style="edgeStyle=orthogonalEdgeStyle;rounded=0;orthogonalLoop=1;jettySize=auto;html=1;fontSize=13;" parent="myIwbRaZVC_E4C9uunCO-1" source="nC5BWbBNHWPFv3tiznkC-3" target="YBiQRps2gjAF7GqjluW7-2" edge="1">
          <mxGeometry relative="1" as="geometry" />
        </mxCell>
        <mxCell id="nC5BWbBNHWPFv3tiznkC-3" value="EHS DICOM &lt;br style=&quot;font-size: 13px;&quot;&gt;Service" style="shape=image;html=1;verticalAlign=top;verticalLabelPosition=bottom;labelBackgroundColor=none;imageAspect=0;aspect=fixed;image=https://cdn4.iconfinder.com/data/icons/web-development-5/500/api-code-window-128.png;fontSize=13;" parent="myIwbRaZVC_E4C9uunCO-1" vertex="1">
          <mxGeometry x="1601.3000000000002" y="1680" width="32" height="32" as="geometry" />
        </mxCell>
        <mxCell id="R7VJXDeurN7EVdI3svxh-23" value="T18" style="edgeStyle=orthogonalEdgeStyle;rounded=0;orthogonalLoop=1;jettySize=auto;html=1;entryX=1;entryY=0.5;entryDx=0;entryDy=0;fontSize=13;" parent="myIwbRaZVC_E4C9uunCO-1" target="6MZSM7XvLLBCz90r0ZZN-101" edge="1">
          <mxGeometry relative="1" as="geometry">
            <mxPoint x="1470" y="1750" as="sourcePoint" />
            <Array as="points">
              <mxPoint x="1460" y="1700" />
              <mxPoint x="1441" y="1700" />
              <mxPoint x="1441" y="1719" />
            </Array>
          </mxGeometry>
        </mxCell>
        <mxCell id="R7VJXDeurN7EVdI3svxh-26" value="T18" style="edgeStyle=orthogonalEdgeStyle;rounded=0;orthogonalLoop=1;jettySize=auto;html=1;entryX=1;entryY=0.7;entryDx=0;entryDy=0;fontSize=13;" parent="myIwbRaZVC_E4C9uunCO-1" source="nC5BWbBNHWPFv3tiznkC-7" target="q525oqmR9Ik2567Cov87-86" edge="1">
          <mxGeometry relative="1" as="geometry">
            <mxPoint x="1477" y="1856" as="targetPoint" />
            <Array as="points">
              <mxPoint x="1450" y="1770" />
              <mxPoint x="1450" y="1856" />
            </Array>
          </mxGeometry>
        </mxCell>
        <mxCell id="nC5BWbBNHWPFv3tiznkC-7" value="AET" style="shape=image;html=1;verticalAlign=top;verticalLabelPosition=bottom;labelBackgroundColor=none;imageAspect=0;aspect=fixed;image=https://cdn4.iconfinder.com/data/icons/web-development-5/500/api-code-window-128.png;fontSize=13;" parent="myIwbRaZVC_E4C9uunCO-1" vertex="1">
          <mxGeometry x="1460" y="1742" width="34" height="34" as="geometry" />
        </mxCell>
        <mxCell id="nC5BWbBNHWPFv3tiznkC-11" value="" style="shape=step;perimeter=stepPerimeter;whiteSpace=wrap;html=1;fixedSize=1;fillColor=#f5f5f5;strokeColor=#666666;fontColor=#333333;direction=west;fontSize=13;" parent="myIwbRaZVC_E4C9uunCO-1" vertex="1">
          <mxGeometry x="573.05" y="1947" width="59.5" height="40" as="geometry" />
        </mxCell>
        <mxCell id="nC5BWbBNHWPFv3tiznkC-23" value="13" style="endArrow=classic;html=1;rounded=0;entryX=1;entryY=0.7;entryDx=0;entryDy=0;fontSize=13;" parent="myIwbRaZVC_E4C9uunCO-1" edge="1">
          <mxGeometry width="50" height="50" relative="1" as="geometry">
            <mxPoint x="740" y="1794.85" as="sourcePoint" />
            <mxPoint x="-111.18000000000006" y="1794.502" as="targetPoint" />
          </mxGeometry>
        </mxCell>
        <mxCell id="nC5BWbBNHWPFv3tiznkC-24" value="CSTORE output" style="edgeLabel;html=1;align=center;verticalAlign=middle;resizable=0;points=[];fontSize=13;" parent="nC5BWbBNHWPFv3tiznkC-23" vertex="1" connectable="0">
          <mxGeometry x="0.152" y="-1" relative="1" as="geometry">
            <mxPoint x="-1" as="offset" />
          </mxGeometry>
        </mxCell>
        <mxCell id="oseVc4HdwnWh8EgqZ8Fy-2" value="11" style="edgeStyle=orthogonalEdgeStyle;rounded=0;orthogonalLoop=1;jettySize=auto;html=1;dashed=1;fontSize=13;" parent="myIwbRaZVC_E4C9uunCO-1" source="oseVc4HdwnWh8EgqZ8Fy-0" target="oseVc4HdwnWh8EgqZ8Fy-1" edge="1">
          <mxGeometry relative="1" as="geometry" />
        </mxCell>
        <mxCell id="oseVc4HdwnWh8EgqZ8Fy-15" value="authn, z&lt;br style=&quot;font-size: 13px;&quot;&gt;Subscription check" style="edgeLabel;html=1;align=center;verticalAlign=middle;resizable=0;points=[];labelBackgroundColor=none;fontSize=13;" parent="oseVc4HdwnWh8EgqZ8Fy-2" vertex="1" connectable="0">
          <mxGeometry x="-0.1937" relative="1" as="geometry">
            <mxPoint y="15" as="offset" />
          </mxGeometry>
        </mxCell>
        <mxCell id="r5pqU8U0AgEEiw9FuOvZ-19" value="T2" style="edgeStyle=orthogonalEdgeStyle;rounded=0;orthogonalLoop=1;jettySize=auto;html=1;fontSize=13;" parent="myIwbRaZVC_E4C9uunCO-1" source="oseVc4HdwnWh8EgqZ8Fy-0" target="6MZSM7XvLLBCz90r0ZZN-99" edge="1">
          <mxGeometry relative="1" as="geometry" />
        </mxCell>
        <mxCell id="oseVc4HdwnWh8EgqZ8Fy-0" value="IDAM&lt;br style=&quot;font-size: 13px;&quot;&gt;Proxy" style="shape=image;html=1;verticalAlign=top;verticalLabelPosition=bottom;labelBackgroundColor=none;imageAspect=0;aspect=fixed;image=https://cdn4.iconfinder.com/data/icons/web-development-5/500/api-code-window-128.png;fontSize=13;" parent="myIwbRaZVC_E4C9uunCO-1" vertex="1">
          <mxGeometry x="1387" y="1550.25" width="34" height="34" as="geometry" />
        </mxCell>
        <mxCell id="oseVc4HdwnWh8EgqZ8Fy-1" value="IDAM&lt;br style=&quot;font-size: 13px;&quot;&gt;" style="shape=image;html=1;verticalAlign=top;verticalLabelPosition=bottom;labelBackgroundColor=none;imageAspect=0;aspect=fixed;image=https://cdn4.iconfinder.com/data/icons/web-development-5/500/api-code-window-128.png;fontSize=13;" parent="myIwbRaZVC_E4C9uunCO-1" vertex="1">
          <mxGeometry x="1387" y="1436.25" width="34" height="34" as="geometry" />
        </mxCell>
        <mxCell id="oseVc4HdwnWh8EgqZ8Fy-8" value="" style="shape=step;perimeter=stepPerimeter;whiteSpace=wrap;html=1;fixedSize=1;fillColor=#ffe6cc;strokeColor=#d79b00;fontSize=13;" parent="myIwbRaZVC_E4C9uunCO-1" vertex="1">
          <mxGeometry x="1550.95" y="1588.25" width="55.2" height="25.54" as="geometry" />
        </mxCell>
        <mxCell id="oseVc4HdwnWh8EgqZ8Fy-9" value="" style="shape=step;perimeter=stepPerimeter;whiteSpace=wrap;html=1;fixedSize=1;fillColor=#ffe6cc;strokeColor=#d79b00;fontSize=13;" parent="myIwbRaZVC_E4C9uunCO-1" vertex="1">
          <mxGeometry x="1585.8500000000001" y="1588.25" width="59.5" height="25.54" as="geometry" />
        </mxCell>
        <mxCell id="oseVc4HdwnWh8EgqZ8Fy-10" value="" style="shape=step;perimeter=stepPerimeter;whiteSpace=wrap;html=1;fixedSize=1;fillColor=#ffe6cc;strokeColor=#d79b00;direction=west;fontSize=13;" parent="myIwbRaZVC_E4C9uunCO-1" vertex="1">
          <mxGeometry x="1545.95" y="1930" width="59.5" height="29.36" as="geometry" />
        </mxCell>
        <mxCell id="oseVc4HdwnWh8EgqZ8Fy-11" value="" style="shape=step;perimeter=stepPerimeter;whiteSpace=wrap;html=1;fixedSize=1;fillColor=#ffe6cc;strokeColor=#d79b00;direction=west;fontSize=13;" parent="myIwbRaZVC_E4C9uunCO-1" vertex="1">
          <mxGeometry x="1585.85" y="1930" width="59.5" height="30" as="geometry" />
        </mxCell>
        <mxCell id="r5pqU8U0AgEEiw9FuOvZ-4" value="" style="edgeStyle=orthogonalEdgeStyle;rounded=0;orthogonalLoop=1;jettySize=auto;html=1;entryX=0;entryY=0.5;entryDx=0;entryDy=0;fontSize=13;" parent="myIwbRaZVC_E4C9uunCO-1" target="oseVc4HdwnWh8EgqZ8Fy-1" edge="1">
          <mxGeometry relative="1" as="geometry">
            <mxPoint x="900" y="1453.3" as="sourcePoint" />
            <Array as="points">
              <mxPoint x="600" y="1453" />
            </Array>
          </mxGeometry>
        </mxCell>
        <mxCell id="r5pqU8U0AgEEiw9FuOvZ-6" value="Tenant Authorization" style="edgeLabel;html=1;align=center;verticalAlign=middle;resizable=0;points=[];fontSize=13;" parent="r5pqU8U0AgEEiw9FuOvZ-4" connectable="0" vertex="1">
          <mxGeometry x="0.1776" y="-3" relative="1" as="geometry">
            <mxPoint y="-5" as="offset" />
          </mxGeometry>
        </mxCell>
        <mxCell id="R7VJXDeurN7EVdI3svxh-11" value="T13.2" style="edgeStyle=orthogonalEdgeStyle;rounded=0;orthogonalLoop=1;jettySize=auto;html=1;entryX=1;entryY=0.75;entryDx=0;entryDy=0;exitX=0.75;exitY=1;exitDx=0;exitDy=0;fontSize=13;" parent="myIwbRaZVC_E4C9uunCO-1" source="FsGYFDfkbAL3ZRBcVbpy-17" target="oseVc4HdwnWh8EgqZ8Fy-0" edge="1">
          <mxGeometry x="0.787" y="14" relative="1" as="geometry">
            <mxPoint x="1565.3500000000004" y="1831.3600000000001" as="targetPoint" />
            <mxPoint as="offset" />
          </mxGeometry>
        </mxCell>
        <mxCell id="R7VJXDeurN7EVdI3svxh-3" value="EHL Vol Sharing" style="shape=image;html=1;verticalAlign=top;verticalLabelPosition=bottom;labelBackgroundColor=none;imageAspect=0;aspect=fixed;image=https://cdn4.iconfinder.com/data/icons/web-development-5/500/api-code-window-128.png;fontSize=13;" parent="myIwbRaZVC_E4C9uunCO-1" vertex="1">
          <mxGeometry x="1645.3500000000001" y="1815.3600000000001" width="32" height="32" as="geometry" />
        </mxCell>
        <mxCell id="R7VJXDeurN7EVdI3svxh-4" value="" style="edgeStyle=orthogonalEdgeStyle;rounded=0;orthogonalLoop=1;jettySize=auto;html=1;entryX=0;entryY=0.5;entryDx=0;entryDy=0;fontSize=13;" parent="myIwbRaZVC_E4C9uunCO-1" target="q525oqmR9Ik2567Cov87-78" edge="1">
          <mxGeometry relative="1" as="geometry">
            <mxPoint x="1139" y="1620.5" as="sourcePoint" />
            <Array as="points">
              <mxPoint x="839" y="1621" />
            </Array>
            <mxPoint x="1280" y="1620.5" as="targetPoint" />
          </mxGeometry>
        </mxCell>
        <mxCell id="R7VJXDeurN7EVdI3svxh-5" value="Delayed via CC scenario" style="edgeLabel;html=1;align=center;verticalAlign=middle;resizable=0;points=[];fontSize=13;" parent="R7VJXDeurN7EVdI3svxh-4" connectable="0" vertex="1">
          <mxGeometry x="0.1776" y="-3" relative="1" as="geometry">
            <mxPoint x="32" y="-3" as="offset" />
          </mxGeometry>
        </mxCell>
        <mxCell id="R7VJXDeurN7EVdI3svxh-7" value="T6" style="edgeStyle=orthogonalEdgeStyle;rounded=0;orthogonalLoop=1;jettySize=auto;html=1;entryX=0.5;entryY=1;entryDx=0;entryDy=0;exitX=0.5;exitY=1;exitDx=0;exitDy=0;fontSize=13;" parent="myIwbRaZVC_E4C9uunCO-1" edge="1">
          <mxGeometry x="-0.2653" relative="1" as="geometry">
            <mxPoint x="1646.0500000000002" y="1822.2099999999998" as="targetPoint" />
            <mxPoint x="1646.0500000000002" y="1644.85" as="sourcePoint" />
            <mxPoint as="offset" />
          </mxGeometry>
        </mxCell>
        <mxCell id="R7VJXDeurN7EVdI3svxh-17" value="" style="edgeStyle=orthogonalEdgeStyle;rounded=0;orthogonalLoop=1;jettySize=auto;html=1;exitX=1;exitY=0.5;exitDx=0;exitDy=0;entryX=0;entryY=0.75;entryDx=0;entryDy=0;fontSize=13;" parent="myIwbRaZVC_E4C9uunCO-1" source="6MZSM7XvLLBCz90r0ZZN-94" edge="1">
          <mxGeometry relative="1" as="geometry">
            <mxPoint x="1632.9867088607598" y="1902.6574683544302" as="targetPoint" />
            <mxPoint x="1785.53" y="1621.5" as="sourcePoint" />
            <Array as="points">
              <mxPoint x="1786" y="1643" />
              <mxPoint x="1786" y="1903" />
            </Array>
          </mxGeometry>
        </mxCell>
        <mxCell id="R7VJXDeurN7EVdI3svxh-18" value="T10" style="edgeLabel;html=1;align=center;verticalAlign=middle;resizable=0;points=[];fontSize=13;" parent="R7VJXDeurN7EVdI3svxh-17" connectable="0" vertex="1">
          <mxGeometry x="0.1654" y="1" relative="1" as="geometry">
            <mxPoint x="-1" y="-24" as="offset" />
          </mxGeometry>
        </mxCell>
        <mxCell id="R7VJXDeurN7EVdI3svxh-21" value="T15" style="edgeStyle=orthogonalEdgeStyle;rounded=0;orthogonalLoop=1;jettySize=auto;html=1;entryX=1;entryY=0.7;entryDx=0;entryDy=0;fontSize=13;" parent="myIwbRaZVC_E4C9uunCO-1" target="YBiQRps2gjAF7GqjluW7-2" edge="1">
          <mxGeometry relative="1" as="geometry">
            <mxPoint x="1657.0500000000002" y="1764.7000000000003" as="sourcePoint" />
            <mxPoint x="1560.1999999999998" y="1764.7000000000003" as="targetPoint" />
          </mxGeometry>
        </mxCell>
        <mxCell id="R7VJXDeurN7EVdI3svxh-27" value="11" style="edgeStyle=orthogonalEdgeStyle;rounded=0;orthogonalLoop=1;jettySize=auto;html=1;fontSize=13;" parent="myIwbRaZVC_E4C9uunCO-1" edge="1">
          <mxGeometry relative="1" as="geometry">
            <Array as="points">
              <mxPoint x="1200" y="1853" />
              <mxPoint x="1200" y="1794" />
            </Array>
            <mxPoint x="1330" y="1853" as="sourcePoint" />
            <mxPoint x="1129" y="1794.2" as="targetPoint" />
          </mxGeometry>
        </mxCell>
        <mxCell id="R7VJXDeurN7EVdI3svxh-33" value="" style="edgeStyle=orthogonalEdgeStyle;rounded=0;orthogonalLoop=1;jettySize=auto;html=1;fontSize=13;" parent="myIwbRaZVC_E4C9uunCO-1" edge="1">
          <mxGeometry relative="1" as="geometry">
            <mxPoint x="1379" y="1703.8200000000002" as="sourcePoint" />
            <mxPoint x="1414" y="1594.25" as="targetPoint" />
          </mxGeometry>
        </mxCell>
        <mxCell id="R7VJXDeurN7EVdI3svxh-34" value="T1" style="edgeLabel;html=1;align=center;verticalAlign=middle;resizable=0;points=[];fontSize=13;" parent="R7VJXDeurN7EVdI3svxh-33" connectable="0" vertex="1">
          <mxGeometry x="-0.3246" y="-2" relative="1" as="geometry">
            <mxPoint as="offset" />
          </mxGeometry>
        </mxCell>
        <mxCell id="R7VJXDeurN7EVdI3svxh-37" value="T13.2" style="edgeStyle=orthogonalEdgeStyle;rounded=0;orthogonalLoop=1;jettySize=auto;html=1;entryX=0.15;entryY=0.05;entryDx=0;entryDy=0;entryPerimeter=0;fontSize=13;" parent="myIwbRaZVC_E4C9uunCO-1" target="q525oqmR9Ik2567Cov87-85" edge="1">
          <mxGeometry x="0.4688" relative="1" as="geometry">
            <mxPoint x="1396" y="1571" as="sourcePoint" />
            <mxPoint x="1316" y="1680.8200000000002" as="targetPoint" />
            <Array as="points">
              <mxPoint x="1396" y="1571" />
              <mxPoint x="1345" y="1571" />
            </Array>
            <mxPoint as="offset" />
          </mxGeometry>
        </mxCell>
        <mxCell id="KFF7oI3oYcerpHkxQwP5-2" value="" style="rounded=0;whiteSpace=wrap;html=1;fillColor=#d5e8d4;strokeColor=#82b366;fontSize=13;" vertex="1" parent="myIwbRaZVC_E4C9uunCO-1">
          <mxGeometry x="1022.47" y="2423.75" width="298" height="500" as="geometry" />
        </mxCell>
        <mxCell id="KFF7oI3oYcerpHkxQwP5-3" value="" style="rounded=1;whiteSpace=wrap;html=1;fillColor=#e1d5e7;dashed=1;strokeColor=#9673a6;fontSize=13;" vertex="1" parent="myIwbRaZVC_E4C9uunCO-1">
          <mxGeometry x="1033.97" y="2544.75" width="158.5" height="229" as="geometry" />
        </mxCell>
        <mxCell id="KFF7oI3oYcerpHkxQwP5-4" value="" style="rounded=0;whiteSpace=wrap;html=1;fillColor=#dae8fc;strokeColor=#6c8ebf;fontSize=13;" vertex="1" parent="myIwbRaZVC_E4C9uunCO-1">
          <mxGeometry x="1472.47" y="2419.75" width="229" height="504" as="geometry" />
        </mxCell>
        <mxCell id="KFF7oI3oYcerpHkxQwP5-5" value="" style="rounded=0;whiteSpace=wrap;html=1;fillColor=#d5e8d4;strokeColor=#82b366;fontSize=13;" vertex="1" parent="myIwbRaZVC_E4C9uunCO-1">
          <mxGeometry x="503.02000000000004" y="2423.75" width="459.45" height="500" as="geometry" />
        </mxCell>
        <mxCell id="KFF7oI3oYcerpHkxQwP5-6" value="" style="rounded=1;whiteSpace=wrap;html=1;fillColor=#e1d5e7;dashed=1;strokeColor=#9673a6;fontSize=13;" vertex="1" parent="myIwbRaZVC_E4C9uunCO-1">
          <mxGeometry x="763.47" y="2539.29" width="163.72" height="230.46" as="geometry" />
        </mxCell>
        <mxCell id="KFF7oI3oYcerpHkxQwP5-7" value="" style="rounded=0;whiteSpace=wrap;html=1;fillColor=#f5f5f5;strokeColor=#666666;fontColor=#333333;fontSize=13;" vertex="1" parent="myIwbRaZVC_E4C9uunCO-1">
          <mxGeometry x="-178" y="2423.75" width="177" height="500" as="geometry" />
        </mxCell>
        <mxCell id="KFF7oI3oYcerpHkxQwP5-8" value="" style="rounded=0;whiteSpace=wrap;html=1;fillColor=#dae8fc;strokeColor=#6c8ebf;fontSize=13;" vertex="1" parent="myIwbRaZVC_E4C9uunCO-1">
          <mxGeometry x="79.06" y="2423.75" width="240" height="500" as="geometry" />
        </mxCell>
        <mxCell id="KFF7oI3oYcerpHkxQwP5-9" value="Scenario 1" style="edgeStyle=orthogonalEdgeStyle;rounded=0;orthogonalLoop=1;jettySize=auto;html=1;entryX=0.5;entryY=1;entryDx=0;entryDy=0;fontSize=13;" edge="1" parent="myIwbRaZVC_E4C9uunCO-1" source="KFF7oI3oYcerpHkxQwP5-10" target="KFF7oI3oYcerpHkxQwP5-14">
          <mxGeometry relative="1" as="geometry" />
        </mxCell>
        <mxCell id="KFF7oI3oYcerpHkxQwP5-10" value="" style="shape=mxgraph.signs.healthcare.mri;html=1;fillColor=#f8cecc;strokeColor=#b85450;verticalLabelPosition=bottom;verticalAlign=top;align=center;fontSize=13;" vertex="1" parent="myIwbRaZVC_E4C9uunCO-1">
          <mxGeometry x="-125.35000000000002" y="2732.1400000000003" width="70.35" height="64.61" as="geometry" />
        </mxCell>
        <mxCell id="KFF7oI3oYcerpHkxQwP5-11" value="" style="edgeStyle=orthogonalEdgeStyle;rounded=0;orthogonalLoop=1;jettySize=auto;html=1;fontSize=13;" edge="1" parent="myIwbRaZVC_E4C9uunCO-1" source="KFF7oI3oYcerpHkxQwP5-14" target="KFF7oI3oYcerpHkxQwP5-26">
          <mxGeometry relative="1" as="geometry">
            <mxPoint x="152.06000000000014" y="2667.9300000000003" as="targetPoint" />
            <Array as="points">
              <mxPoint x="152.47" y="2663.75" />
              <mxPoint x="152.47" y="2663.75" />
            </Array>
          </mxGeometry>
        </mxCell>
        <mxCell id="KFF7oI3oYcerpHkxQwP5-12" value="CMOVE main" style="edgeLabel;html=1;align=center;verticalAlign=middle;resizable=0;points=[];fontSize=13;" vertex="1" connectable="0" parent="KFF7oI3oYcerpHkxQwP5-11">
          <mxGeometry x="-0.1089" y="2" relative="1" as="geometry">
            <mxPoint as="offset" />
          </mxGeometry>
        </mxCell>
        <mxCell id="KFF7oI3oYcerpHkxQwP5-13" value="6" style="edgeLabel;html=1;align=center;verticalAlign=middle;resizable=0;points=[];fontSize=13;" vertex="1" connectable="0" parent="KFF7oI3oYcerpHkxQwP5-11">
          <mxGeometry x="0.6129" y="-2" relative="1" as="geometry">
            <mxPoint as="offset" />
          </mxGeometry>
        </mxCell>
        <mxCell id="KFF7oI3oYcerpHkxQwP5-14" value="PACS&amp;nbsp;" style="shape=datastore;whiteSpace=wrap;html=1;fontSize=13;fillColor=#1ba1e2;strokeColor=#006EAF;fontColor=#ffffff;" vertex="1" parent="myIwbRaZVC_E4C9uunCO-1">
          <mxGeometry x="-124.18" y="2636.75" width="68" height="62.36" as="geometry" />
        </mxCell>
        <mxCell id="KFF7oI3oYcerpHkxQwP5-15" value="/execute" style="shape=image;html=1;verticalAlign=top;verticalLabelPosition=bottom;labelBackgroundColor=none;imageAspect=0;aspect=fixed;image=https://cdn4.iconfinder.com/data/icons/web-development-5/500/api-code-window-128.png;fontSize=13;" vertex="1" parent="myIwbRaZVC_E4C9uunCO-1">
          <mxGeometry x="523.47" y="2486.75" width="34" height="34" as="geometry" />
        </mxCell>
        <mxCell id="KFF7oI3oYcerpHkxQwP5-16" value="Invoker Service" style="edgeStyle=orthogonalEdgeStyle;rounded=0;orthogonalLoop=1;jettySize=auto;html=1;entryX=0;entryY=0.5;entryDx=0;entryDy=0;exitX=1;exitY=0.5;exitDx=0;exitDy=0;fontSize=13;" edge="1" parent="myIwbRaZVC_E4C9uunCO-1" source="KFF7oI3oYcerpHkxQwP5-20" target="KFF7oI3oYcerpHkxQwP5-15">
          <mxGeometry relative="1" as="geometry">
            <mxPoint x="108.06999999999991" y="2603.75" as="targetPoint" />
            <Array as="points">
              <mxPoint x="392.47" y="2503.75" />
              <mxPoint x="392.47" y="2503.75" />
            </Array>
          </mxGeometry>
        </mxCell>
        <mxCell id="KFF7oI3oYcerpHkxQwP5-17" value="3" style="edgeLabel;html=1;align=center;verticalAlign=middle;resizable=0;points=[];fontSize=13;" vertex="1" connectable="0" parent="KFF7oI3oYcerpHkxQwP5-16">
          <mxGeometry x="-0.5352" relative="1" as="geometry">
            <mxPoint as="offset" />
          </mxGeometry>
        </mxCell>
        <mxCell id="KFF7oI3oYcerpHkxQwP5-18" value="" style="shape=step;perimeter=stepPerimeter;whiteSpace=wrap;html=1;fixedSize=1;fillColor=#f5f5f5;strokeColor=#666666;fontColor=#333333;fontSize=13;" vertex="1" parent="myIwbRaZVC_E4C9uunCO-1">
          <mxGeometry x="114.91" y="2483.75" width="59.5" height="40" as="geometry" />
        </mxCell>
        <mxCell id="KFF7oI3oYcerpHkxQwP5-19" value="" style="shape=step;perimeter=stepPerimeter;whiteSpace=wrap;html=1;fixedSize=1;fillColor=#f5f5f5;strokeColor=#666666;fontColor=#333333;fontSize=13;" vertex="1" parent="myIwbRaZVC_E4C9uunCO-1">
          <mxGeometry x="154.51" y="2483.75" width="59.5" height="40" as="geometry" />
        </mxCell>
        <mxCell id="KFF7oI3oYcerpHkxQwP5-20" value="" style="shape=step;perimeter=stepPerimeter;whiteSpace=wrap;html=1;fixedSize=1;fillColor=#ffe6cc;strokeColor=#d79b00;fontSize=13;" vertex="1" parent="myIwbRaZVC_E4C9uunCO-1">
          <mxGeometry x="194.41" y="2483.75" width="59.5" height="40" as="geometry" />
        </mxCell>
        <mxCell id="KFF7oI3oYcerpHkxQwP5-21" value="Call PACS DCM endpoints" style="edgeStyle=orthogonalEdgeStyle;rounded=0;orthogonalLoop=1;jettySize=auto;html=1;exitX=0.75;exitY=1;exitDx=0;exitDy=0;fontSize=13;" edge="1" parent="myIwbRaZVC_E4C9uunCO-1" source="KFF7oI3oYcerpHkxQwP5-38" target="KFF7oI3oYcerpHkxQwP5-23">
          <mxGeometry x="0.124" relative="1" as="geometry">
            <mxPoint x="118.16999999999982" y="2533.75" as="sourcePoint" />
            <mxPoint x="-42.210000000000065" y="2623.75" as="targetPoint" />
            <Array as="points">
              <mxPoint x="625.47" y="2563.75" />
              <mxPoint x="-45.53" y="2563.75" />
              <mxPoint x="-45.53" y="2630.75" />
            </Array>
            <mxPoint as="offset" />
          </mxGeometry>
        </mxCell>
        <mxCell id="KFF7oI3oYcerpHkxQwP5-22" value="5" style="edgeLabel;html=1;align=center;verticalAlign=middle;resizable=0;points=[];fontSize=13;" vertex="1" connectable="0" parent="KFF7oI3oYcerpHkxQwP5-21">
          <mxGeometry x="-0.8385" y="2" relative="1" as="geometry">
            <mxPoint as="offset" />
          </mxGeometry>
        </mxCell>
        <mxCell id="KFF7oI3oYcerpHkxQwP5-23" value="AET" style="shape=image;html=1;verticalAlign=top;verticalLabelPosition=bottom;labelBackgroundColor=none;imageAspect=0;aspect=fixed;image=https://cdn4.iconfinder.com/data/icons/web-development-5/500/api-code-window-128.png;fontSize=13;" vertex="1" parent="myIwbRaZVC_E4C9uunCO-1">
          <mxGeometry x="-57.00000000000006" y="2613.75" width="34" height="34" as="geometry" />
        </mxCell>
        <mxCell id="KFF7oI3oYcerpHkxQwP5-24" value="" style="edgeStyle=orthogonalEdgeStyle;rounded=0;orthogonalLoop=1;jettySize=auto;html=1;entryX=0;entryY=0.5;entryDx=0;entryDy=0;fontSize=13;" edge="1" parent="myIwbRaZVC_E4C9uunCO-1" source="KFF7oI3oYcerpHkxQwP5-26" target="KFF7oI3oYcerpHkxQwP5-117">
          <mxGeometry relative="1" as="geometry">
            <Array as="points">
              <mxPoint x="747.47" y="2588.75" />
            </Array>
          </mxGeometry>
        </mxCell>
        <mxCell id="KFF7oI3oYcerpHkxQwP5-25" value="7" style="edgeLabel;html=1;align=center;verticalAlign=middle;resizable=0;points=[];fontSize=13;" connectable="0" vertex="1" parent="KFF7oI3oYcerpHkxQwP5-24">
          <mxGeometry x="0.1336" y="1" relative="1" as="geometry">
            <mxPoint y="1" as="offset" />
          </mxGeometry>
        </mxCell>
        <mxCell id="KFF7oI3oYcerpHkxQwP5-26" value="AET" style="shape=image;html=1;verticalAlign=top;verticalLabelPosition=bottom;labelBackgroundColor=none;imageAspect=0;aspect=fixed;image=https://cdn4.iconfinder.com/data/icons/web-development-5/500/api-code-window-128.png;fontSize=13;" vertex="1" parent="myIwbRaZVC_E4C9uunCO-1">
          <mxGeometry x="742.47" y="2642.25" width="34" height="34" as="geometry" />
        </mxCell>
        <mxCell id="KFF7oI3oYcerpHkxQwP5-27" value="" style="edgeStyle=orthogonalEdgeStyle;rounded=0;orthogonalLoop=1;jettySize=auto;html=1;entryX=0;entryY=0.5;entryDx=0;entryDy=0;fontSize=13;" edge="1" parent="myIwbRaZVC_E4C9uunCO-1" source="KFF7oI3oYcerpHkxQwP5-29" target="KFF7oI3oYcerpHkxQwP5-59">
          <mxGeometry relative="1" as="geometry">
            <mxPoint x="938.47" y="2667.75" as="targetPoint" />
          </mxGeometry>
        </mxCell>
        <mxCell id="KFF7oI3oYcerpHkxQwP5-28" value="8" style="edgeLabel;html=1;align=center;verticalAlign=middle;resizable=0;points=[];fontSize=13;" vertex="1" connectable="0" parent="KFF7oI3oYcerpHkxQwP5-27">
          <mxGeometry x="-0.0018" y="-2" relative="1" as="geometry">
            <mxPoint x="1" as="offset" />
          </mxGeometry>
        </mxCell>
        <mxCell id="KFF7oI3oYcerpHkxQwP5-29" value="XT&lt;br style=&quot;font-size: 13px;&quot;&gt;CC" style="shape=datastore;whiteSpace=wrap;html=1;fontSize=13;fillColor=#1ba1e2;strokeColor=#006EAF;fontColor=#ffffff;" vertex="1" parent="myIwbRaZVC_E4C9uunCO-1">
          <mxGeometry x="804.5400000000001" y="2636.75" width="68" height="62.36" as="geometry" />
        </mxCell>
        <mxCell id="KFF7oI3oYcerpHkxQwP5-30" value="AET" style="shape=image;html=1;verticalAlign=top;verticalLabelPosition=bottom;labelBackgroundColor=none;imageAspect=0;aspect=fixed;image=https://cdn4.iconfinder.com/data/icons/web-development-5/500/api-code-window-128.png;fontSize=13;" vertex="1" parent="myIwbRaZVC_E4C9uunCO-1">
          <mxGeometry x="869.8900000000001" y="2614.29" width="34" height="34" as="geometry" />
        </mxCell>
        <mxCell id="KFF7oI3oYcerpHkxQwP5-31" value="" style="edgeStyle=orthogonalEdgeStyle;rounded=0;orthogonalLoop=1;jettySize=auto;html=1;fontSize=13;" edge="1" parent="myIwbRaZVC_E4C9uunCO-1" source="KFF7oI3oYcerpHkxQwP5-35" target="KFF7oI3oYcerpHkxQwP5-14">
          <mxGeometry relative="1" as="geometry" />
        </mxCell>
        <mxCell id="KFF7oI3oYcerpHkxQwP5-32" value="1" style="edgeLabel;html=1;align=center;verticalAlign=middle;resizable=0;points=[];fontSize=13;" vertex="1" connectable="0" parent="KFF7oI3oYcerpHkxQwP5-31">
          <mxGeometry x="-0.044" y="2" relative="1" as="geometry">
            <mxPoint as="offset" />
          </mxGeometry>
        </mxCell>
        <mxCell id="KFF7oI3oYcerpHkxQwP5-33" value="" style="edgeStyle=orthogonalEdgeStyle;rounded=0;orthogonalLoop=1;jettySize=auto;html=1;entryX=0;entryY=0.5;entryDx=0;entryDy=0;fontSize=13;" edge="1" parent="myIwbRaZVC_E4C9uunCO-1" source="KFF7oI3oYcerpHkxQwP5-35" target="KFF7oI3oYcerpHkxQwP5-36">
          <mxGeometry relative="1" as="geometry">
            <mxPoint x="1.289999999999936" y="2506.75" as="targetPoint" />
          </mxGeometry>
        </mxCell>
        <mxCell id="KFF7oI3oYcerpHkxQwP5-34" value="2" style="edgeLabel;html=1;align=center;verticalAlign=middle;resizable=0;points=[];fontSize=13;" vertex="1" connectable="0" parent="KFF7oI3oYcerpHkxQwP5-33">
          <mxGeometry x="-0.2093" relative="1" as="geometry">
            <mxPoint as="offset" />
          </mxGeometry>
        </mxCell>
        <mxCell id="KFF7oI3oYcerpHkxQwP5-35" value="SCM" style="rounded=0;whiteSpace=wrap;html=1;fillColor=#dae8fc;strokeColor=#6c8ebf;fontSize=13;" vertex="1" parent="myIwbRaZVC_E4C9uunCO-1">
          <mxGeometry x="-122" y="2476.75" width="65" height="54" as="geometry" />
        </mxCell>
        <mxCell id="KFF7oI3oYcerpHkxQwP5-36" value="EO" style="shape=image;html=1;verticalAlign=top;verticalLabelPosition=bottom;labelBackgroundColor=none;imageAspect=0;aspect=fixed;image=https://cdn4.iconfinder.com/data/icons/web-development-5/500/api-code-window-128.png;fontSize=13;" vertex="1" parent="myIwbRaZVC_E4C9uunCO-1">
          <mxGeometry x="89.05999999999995" y="2486.75" width="34" height="34" as="geometry" />
        </mxCell>
        <mxCell id="KFF7oI3oYcerpHkxQwP5-37" value="" style="shape=step;perimeter=stepPerimeter;whiteSpace=wrap;html=1;fixedSize=1;fillColor=#f5f5f5;strokeColor=#666666;fontColor=#333333;fontSize=13;" vertex="1" parent="myIwbRaZVC_E4C9uunCO-1">
          <mxGeometry x="543.52" y="2483.75" width="59.5" height="40" as="geometry" />
        </mxCell>
        <mxCell id="KFF7oI3oYcerpHkxQwP5-38" value="" style="shape=step;perimeter=stepPerimeter;whiteSpace=wrap;html=1;fixedSize=1;fillColor=#f5f5f5;strokeColor=#666666;fontColor=#333333;fontSize=13;" vertex="1" parent="myIwbRaZVC_E4C9uunCO-1">
          <mxGeometry x="583.12" y="2483.75" width="59.5" height="40" as="geometry" />
        </mxCell>
        <mxCell id="KFF7oI3oYcerpHkxQwP5-39" value="" style="shape=step;perimeter=stepPerimeter;whiteSpace=wrap;html=1;fixedSize=1;fillColor=#ffe6cc;strokeColor=#d79b00;fontSize=13;" vertex="1" parent="myIwbRaZVC_E4C9uunCO-1">
          <mxGeometry x="623.02" y="2483.75" width="59.5" height="40" as="geometry" />
        </mxCell>
        <mxCell id="KFF7oI3oYcerpHkxQwP5-40" value="Cloud&amp;nbsp;Connector&amp;nbsp;" style="text;html=1;align=center;verticalAlign=middle;resizable=0;points=[];autosize=1;fontStyle=1;fontSize=13;labelBackgroundColor=none;fontColor=#333333;" vertex="1" parent="myIwbRaZVC_E4C9uunCO-1">
          <mxGeometry x="807.0000000000001" y="2435" width="119" height="20" as="geometry" />
        </mxCell>
        <mxCell id="KFF7oI3oYcerpHkxQwP5-41" value="&lt;span style=&quot;font-size: 13px;&quot;&gt;Edison&amp;nbsp;&lt;/span&gt;&lt;span style=&quot;font-size: 13px;&quot;&gt;Orchestrator (PO, WO)&lt;/span&gt;" style="text;html=1;align=center;verticalAlign=middle;resizable=0;points=[];autosize=1;fontStyle=1;fontSize=13;labelBackgroundColor=none;fontColor=#333333;" vertex="1" parent="myIwbRaZVC_E4C9uunCO-1">
          <mxGeometry x="103.86" y="2903.75" width="197" height="20" as="geometry" />
        </mxCell>
        <mxCell id="KFF7oI3oYcerpHkxQwP5-42" value="&lt;span style=&quot;font-size: 13px;&quot;&gt;Source Systems&lt;/span&gt;" style="text;html=1;align=center;verticalAlign=middle;resizable=0;points=[];autosize=1;fontStyle=1;fontSize=13;labelBackgroundColor=none;fontColor=#333333;" vertex="1" parent="myIwbRaZVC_E4C9uunCO-1">
          <mxGeometry x="-145" y="2896.75" width="111" height="20" as="geometry" />
        </mxCell>
        <mxCell id="KFF7oI3oYcerpHkxQwP5-43" value="" style="shape=step;perimeter=stepPerimeter;whiteSpace=wrap;html=1;fixedSize=1;fillColor=#f5f5f5;strokeColor=#666666;fontColor=#333333;fontSize=13;" vertex="1" parent="myIwbRaZVC_E4C9uunCO-1">
          <mxGeometry x="768.19" y="2569.29" width="61" height="40" as="geometry" />
        </mxCell>
        <mxCell id="KFF7oI3oYcerpHkxQwP5-44" value="" style="edgeStyle=orthogonalEdgeStyle;rounded=0;orthogonalLoop=1;jettySize=auto;html=1;dashed=1;entryX=0.5;entryY=0;entryDx=0;entryDy=0;fontSize=13;" edge="1" parent="myIwbRaZVC_E4C9uunCO-1" source="KFF7oI3oYcerpHkxQwP5-45" target="KFF7oI3oYcerpHkxQwP5-29">
          <mxGeometry relative="1" as="geometry" />
        </mxCell>
        <mxCell id="KFF7oI3oYcerpHkxQwP5-45" value="" style="shape=step;perimeter=stepPerimeter;whiteSpace=wrap;html=1;fixedSize=1;fillColor=#f5f5f5;strokeColor=#666666;fontColor=#333333;fontSize=13;" vertex="1" parent="myIwbRaZVC_E4C9uunCO-1">
          <mxGeometry x="807.79" y="2569.29" width="59.5" height="40" as="geometry" />
        </mxCell>
        <mxCell id="KFF7oI3oYcerpHkxQwP5-46" value="" style="shape=step;perimeter=stepPerimeter;whiteSpace=wrap;html=1;fixedSize=1;fillColor=#ffe6cc;strokeColor=#d79b00;fontSize=13;" vertex="1" parent="myIwbRaZVC_E4C9uunCO-1">
          <mxGeometry x="847.69" y="2569.29" width="59.5" height="40" as="geometry" />
        </mxCell>
        <mxCell id="KFF7oI3oYcerpHkxQwP5-47" value="&lt;font style=&quot;font-size: 13px;&quot;&gt;XT Scenario&lt;/font&gt;" style="text;html=1;align=center;verticalAlign=middle;resizable=0;points=[];autosize=1;fontStyle=1;fontSize=13;labelBackgroundColor=none;fontColor=#333333;" vertex="1" parent="myIwbRaZVC_E4C9uunCO-1">
          <mxGeometry x="799.3900000000001" y="2547.29" width="85" height="20" as="geometry" />
        </mxCell>
        <mxCell id="KFF7oI3oYcerpHkxQwP5-48" value="" style="edgeStyle=orthogonalEdgeStyle;rounded=0;orthogonalLoop=1;jettySize=auto;html=1;exitX=0.5;exitY=0.5;exitDx=0;exitDy=0;exitPerimeter=0;fontSize=13;" edge="1" parent="myIwbRaZVC_E4C9uunCO-1" source="KFF7oI3oYcerpHkxQwP5-50">
          <mxGeometry relative="1" as="geometry">
            <mxPoint x="604.47" y="2333.75" as="targetPoint" />
          </mxGeometry>
        </mxCell>
        <mxCell id="KFF7oI3oYcerpHkxQwP5-49" value="4" style="edgeLabel;html=1;align=center;verticalAlign=middle;resizable=0;points=[];fontSize=13;" connectable="0" vertex="1" parent="KFF7oI3oYcerpHkxQwP5-48">
          <mxGeometry x="0.1654" y="1" relative="1" as="geometry">
            <mxPoint as="offset" />
          </mxGeometry>
        </mxCell>
        <mxCell id="KFF7oI3oYcerpHkxQwP5-50" value="&lt;font style=&quot;font-size: 13px;&quot;&gt;EAI Push/pre-processing Scenario&lt;/font&gt;" style="text;html=1;align=center;verticalAlign=middle;resizable=0;points=[];autosize=1;fontStyle=1;fontSize=13;labelBackgroundColor=none;fontColor=#333333;" vertex="1" parent="myIwbRaZVC_E4C9uunCO-1">
          <mxGeometry x="494.47" y="2463.75" width="223" height="20" as="geometry" />
        </mxCell>
        <mxCell id="KFF7oI3oYcerpHkxQwP5-51" value="" style="edgeStyle=orthogonalEdgeStyle;rounded=0;orthogonalLoop=1;jettySize=auto;html=1;entryX=0.431;entryY=1.103;entryDx=0;entryDy=0;entryPerimeter=0;fontSize=13;" edge="1" parent="myIwbRaZVC_E4C9uunCO-1" source="KFF7oI3oYcerpHkxQwP5-55" target="KFF7oI3oYcerpHkxQwP5-47">
          <mxGeometry relative="1" as="geometry">
            <mxPoint x="817.97" y="2503.75" as="targetPoint" />
          </mxGeometry>
        </mxCell>
        <mxCell id="KFF7oI3oYcerpHkxQwP5-52" value="10" style="edgeLabel;html=1;align=center;verticalAlign=middle;resizable=0;points=[];fontSize=13;" vertex="1" connectable="0" parent="KFF7oI3oYcerpHkxQwP5-51">
          <mxGeometry x="0.2567" y="-1" relative="1" as="geometry">
            <mxPoint x="1" as="offset" />
          </mxGeometry>
        </mxCell>
        <mxCell id="KFF7oI3oYcerpHkxQwP5-53" value="To CC scenario" style="edgeLabel;html=1;align=center;verticalAlign=middle;resizable=0;points=[];fontSize=13;" vertex="1" connectable="0" parent="KFF7oI3oYcerpHkxQwP5-51">
          <mxGeometry x="-0.6477" y="-1" relative="1" as="geometry">
            <mxPoint x="22" as="offset" />
          </mxGeometry>
        </mxCell>
        <mxCell id="KFF7oI3oYcerpHkxQwP5-54" value="" style="edgeStyle=orthogonalEdgeStyle;rounded=0;orthogonalLoop=1;jettySize=auto;html=1;entryX=0;entryY=0.5;entryDx=0;entryDy=0;dashed=1;exitX=0;exitY=0.5;exitDx=0;exitDy=0;fontSize=13;" edge="1" parent="myIwbRaZVC_E4C9uunCO-1" source="KFF7oI3oYcerpHkxQwP5-135" target="KFF7oI3oYcerpHkxQwP5-116">
          <mxGeometry relative="1" as="geometry">
            <Array as="points">
              <mxPoint x="872.47" y="2850.75" />
              <mxPoint x="872.47" y="2808.75" />
            </Array>
            <mxPoint x="636.8950000000002" y="2764.75" as="sourcePoint" />
          </mxGeometry>
        </mxCell>
        <mxCell id="KFF7oI3oYcerpHkxQwP5-55" value="" style="shape=step;perimeter=stepPerimeter;whiteSpace=wrap;html=1;fixedSize=1;fillColor=#ffe6cc;strokeColor=#d79b00;fontSize=13;" vertex="1" parent="myIwbRaZVC_E4C9uunCO-1">
          <mxGeometry x="658.47" y="2483.75" width="59.5" height="40" as="geometry" />
        </mxCell>
        <mxCell id="KFF7oI3oYcerpHkxQwP5-56" value="/process" style="shape=image;html=1;verticalAlign=top;verticalLabelPosition=bottom;labelBackgroundColor=none;imageAspect=0;aspect=fixed;image=https://cdn4.iconfinder.com/data/icons/web-development-5/500/api-code-window-128.png;fontSize=13;" vertex="1" parent="myIwbRaZVC_E4C9uunCO-1">
          <mxGeometry x="1142.47" y="2487.75" width="34" height="34" as="geometry" />
        </mxCell>
        <mxCell id="KFF7oI3oYcerpHkxQwP5-57" value="" style="edgeStyle=orthogonalEdgeStyle;rounded=0;orthogonalLoop=1;jettySize=auto;html=1;fontSize=13;" edge="1" parent="myIwbRaZVC_E4C9uunCO-1" source="KFF7oI3oYcerpHkxQwP5-59" target="KFF7oI3oYcerpHkxQwP5-66">
          <mxGeometry relative="1" as="geometry">
            <Array as="points">
              <mxPoint x="1212.47" y="2667.75" />
              <mxPoint x="1212.47" y="2726.75" />
            </Array>
          </mxGeometry>
        </mxCell>
        <mxCell id="KFF7oI3oYcerpHkxQwP5-58" value="9" style="edgeLabel;html=1;align=center;verticalAlign=middle;resizable=0;points=[];fontSize=13;" connectable="0" vertex="1" parent="KFF7oI3oYcerpHkxQwP5-57">
          <mxGeometry x="0.6652" y="-1" relative="1" as="geometry">
            <mxPoint as="offset" />
          </mxGeometry>
        </mxCell>
        <mxCell id="KFF7oI3oYcerpHkxQwP5-59" value="XT&lt;br style=&quot;font-size: 13px;&quot;&gt;SC" style="shape=datastore;whiteSpace=wrap;html=1;fontSize=13;fillColor=#1ba1e2;strokeColor=#006EAF;fontColor=#ffffff;" vertex="1" parent="myIwbRaZVC_E4C9uunCO-1">
          <mxGeometry x="1053.47" y="2636.75" width="68" height="62.36" as="geometry" />
        </mxCell>
        <mxCell id="KFF7oI3oYcerpHkxQwP5-60" value="Site Connector&amp;nbsp;" style="text;html=1;align=center;verticalAlign=middle;resizable=0;points=[];autosize=1;fontStyle=1;fontSize=13;labelBackgroundColor=none;fontColor=#333333;" vertex="1" parent="myIwbRaZVC_E4C9uunCO-1">
          <mxGeometry x="1119.47" y="2429.75" width="106" height="20" as="geometry" />
        </mxCell>
        <mxCell id="KFF7oI3oYcerpHkxQwP5-62" value="" style="edgeStyle=orthogonalEdgeStyle;rounded=0;orthogonalLoop=1;jettySize=auto;html=1;fontSize=13;" edge="1" parent="myIwbRaZVC_E4C9uunCO-1" source="KFF7oI3oYcerpHkxQwP5-64" target="KFF7oI3oYcerpHkxQwP5-150">
          <mxGeometry relative="1" as="geometry" />
        </mxCell>
        <mxCell id="KFF7oI3oYcerpHkxQwP5-63" value="T1" style="edgeLabel;html=1;align=center;verticalAlign=middle;resizable=0;points=[];fontSize=13;" connectable="0" vertex="1" parent="KFF7oI3oYcerpHkxQwP5-62">
          <mxGeometry x="-0.3246" y="-2" relative="1" as="geometry">
            <mxPoint as="offset" />
          </mxGeometry>
        </mxCell>
        <mxCell id="KFF7oI3oYcerpHkxQwP5-64" value="TruePACS EA" style="shape=datastore;whiteSpace=wrap;html=1;fontSize=13;fillColor=#1ba1e2;strokeColor=#006EAF;fontColor=#ffffff;" vertex="1" parent="myIwbRaZVC_E4C9uunCO-1">
          <mxGeometry x="1337.47" y="2577.57" width="68" height="62.36" as="geometry" />
        </mxCell>
        <mxCell id="KFF7oI3oYcerpHkxQwP5-66" value="OnPrem&lt;br style=&quot;font-size: 13px;&quot;&gt;EA" style="shape=datastore;whiteSpace=wrap;html=1;fontSize=13;fillColor=#1ba1e2;strokeColor=#006EAF;fontColor=#ffffff;" vertex="1" parent="myIwbRaZVC_E4C9uunCO-1">
          <mxGeometry x="1337.47" y="2695.9300000000003" width="68" height="62.36" as="geometry" />
        </mxCell>
        <mxCell id="KFF7oI3oYcerpHkxQwP5-67" value="" style="outlineConnect=0;dashed=0;verticalLabelPosition=bottom;verticalAlign=top;align=center;html=1;shape=mxgraph.aws3.cloud_2;fillColor=#F58534;gradientColor=none;fontSize=13;" vertex="1" parent="myIwbRaZVC_E4C9uunCO-1">
          <mxGeometry x="2115" y="2399" width="45" height="42.5" as="geometry" />
        </mxCell>
        <mxCell id="KFF7oI3oYcerpHkxQwP5-68" value="" style="edgeStyle=orthogonalEdgeStyle;rounded=0;orthogonalLoop=1;jettySize=auto;html=1;entryX=0;entryY=0.5;entryDx=0;entryDy=0;exitX=1;exitY=0.5;exitDx=0;exitDy=0;fontSize=13;" edge="1" parent="myIwbRaZVC_E4C9uunCO-1" source="KFF7oI3oYcerpHkxQwP5-56" target="KFF7oI3oYcerpHkxQwP5-150">
          <mxGeometry relative="1" as="geometry">
            <mxPoint x="1282.47" y="2503.75" as="sourcePoint" />
          </mxGeometry>
        </mxCell>
        <mxCell id="KFF7oI3oYcerpHkxQwP5-69" value="11" style="edgeLabel;html=1;align=center;verticalAlign=middle;resizable=0;points=[];fontSize=13;" connectable="0" vertex="1" parent="KFF7oI3oYcerpHkxQwP5-68">
          <mxGeometry x="-0.2966" relative="1" as="geometry">
            <mxPoint as="offset" />
          </mxGeometry>
        </mxCell>
        <mxCell id="KFF7oI3oYcerpHkxQwP5-70" value="" style="shape=step;perimeter=stepPerimeter;whiteSpace=wrap;html=1;fixedSize=1;fillColor=#f5f5f5;strokeColor=#666666;fontColor=#333333;fontSize=13;" vertex="1" parent="myIwbRaZVC_E4C9uunCO-1">
          <mxGeometry x="1041.47" y="2568.75" width="59.5" height="40" as="geometry" />
        </mxCell>
        <mxCell id="KFF7oI3oYcerpHkxQwP5-71" value="" style="shape=step;perimeter=stepPerimeter;whiteSpace=wrap;html=1;fixedSize=1;fillColor=#f5f5f5;strokeColor=#666666;fontColor=#333333;fontSize=13;" vertex="1" parent="myIwbRaZVC_E4C9uunCO-1">
          <mxGeometry x="1081.07" y="2568.75" width="59.5" height="40" as="geometry" />
        </mxCell>
        <mxCell id="KFF7oI3oYcerpHkxQwP5-72" value="" style="shape=step;perimeter=stepPerimeter;whiteSpace=wrap;html=1;fixedSize=1;fillColor=#ffe6cc;strokeColor=#d79b00;fontSize=13;" vertex="1" parent="myIwbRaZVC_E4C9uunCO-1">
          <mxGeometry x="1120.97" y="2568.75" width="59.5" height="40" as="geometry" />
        </mxCell>
        <mxCell id="KFF7oI3oYcerpHkxQwP5-178" value="" style="edgeStyle=orthogonalEdgeStyle;rounded=0;orthogonalLoop=1;jettySize=auto;html=1;entryX=1;entryY=0.5;entryDx=0;entryDy=0;fontSize=13;" edge="1" parent="myIwbRaZVC_E4C9uunCO-1" source="KFF7oI3oYcerpHkxQwP5-73" target="KFF7oI3oYcerpHkxQwP5-151">
          <mxGeometry relative="1" as="geometry">
            <mxPoint x="1529.12" y="2404.75" as="targetPoint" />
            <Array as="points">
              <mxPoint x="1520" y="2337" />
            </Array>
          </mxGeometry>
        </mxCell>
        <mxCell id="KFF7oI3oYcerpHkxQwP5-179" value="Subscription check" style="edgeLabel;html=1;align=center;verticalAlign=middle;resizable=0;points=[];fontSize=13;" vertex="1" connectable="0" parent="KFF7oI3oYcerpHkxQwP5-178">
          <mxGeometry x="-0.0905" y="-1" relative="1" as="geometry">
            <mxPoint as="offset" />
          </mxGeometry>
        </mxCell>
        <mxCell id="KFF7oI3oYcerpHkxQwP5-73" value="Main" style="shape=step;perimeter=stepPerimeter;whiteSpace=wrap;html=1;fixedSize=1;fillColor=#f5f5f5;strokeColor=#666666;fontColor=#333333;fontSize=13;" vertex="1" parent="myIwbRaZVC_E4C9uunCO-1">
          <mxGeometry x="1499.37" y="2484.75" width="59.5" height="40" as="geometry" />
        </mxCell>
        <mxCell id="KFF7oI3oYcerpHkxQwP5-75" value="3P" style="shape=step;perimeter=stepPerimeter;whiteSpace=wrap;html=1;fixedSize=1;fillColor=#f8cecc;strokeColor=#b85450;fontSize=13;" vertex="1" parent="myIwbRaZVC_E4C9uunCO-1">
          <mxGeometry x="1550.12" y="2513.75" width="59.5" height="25.54" as="geometry" />
        </mxCell>
        <mxCell id="KFF7oI3oYcerpHkxQwP5-76" value="T9" style="edgeStyle=orthogonalEdgeStyle;rounded=0;orthogonalLoop=1;jettySize=auto;html=1;fontSize=13;" edge="1" parent="myIwbRaZVC_E4C9uunCO-1" source="KFF7oI3oYcerpHkxQwP5-77" target="KFF7oI3oYcerpHkxQwP5-84">
          <mxGeometry x="-0.0028" relative="1" as="geometry">
            <Array as="points">
              <mxPoint x="1619.47" y="2503.75" />
              <mxPoint x="1787.47" y="2503.75" />
            </Array>
            <mxPoint as="offset" />
          </mxGeometry>
        </mxCell>
        <mxCell id="KFF7oI3oYcerpHkxQwP5-77" value="" style="shape=step;perimeter=stepPerimeter;whiteSpace=wrap;html=1;fixedSize=1;fillColor=#f8cecc;strokeColor=#b85450;fontSize=13;" vertex="1" parent="myIwbRaZVC_E4C9uunCO-1">
          <mxGeometry x="1590.02" y="2513.75" width="59.5" height="25.54" as="geometry" />
        </mxCell>
        <mxCell id="KFF7oI3oYcerpHkxQwP5-78" value="AET" style="shape=image;html=1;verticalAlign=top;verticalLabelPosition=bottom;labelBackgroundColor=none;imageAspect=0;aspect=fixed;image=https://cdn4.iconfinder.com/data/icons/web-development-5/500/api-code-window-128.png;fontSize=13;" vertex="1" parent="myIwbRaZVC_E4C9uunCO-1">
          <mxGeometry x="1116.47" y="2625.75" width="34" height="34" as="geometry" />
        </mxCell>
        <mxCell id="KFF7oI3oYcerpHkxQwP5-79" value="EO" style="shape=image;html=1;verticalAlign=top;verticalLabelPosition=bottom;labelBackgroundColor=none;imageAspect=0;aspect=fixed;image=https://cdn4.iconfinder.com/data/icons/web-development-5/500/api-code-window-128.png;fontSize=13;" vertex="1" parent="myIwbRaZVC_E4C9uunCO-1">
          <mxGeometry x="1477.67" y="2487.75" width="34" height="34" as="geometry" />
        </mxCell>
        <mxCell id="KFF7oI3oYcerpHkxQwP5-80" value="&lt;span style=&quot;font-size: 13px;&quot;&gt;Edison&amp;nbsp;&lt;/span&gt;&lt;span style=&quot;font-size: 13px;&quot;&gt;Orchestrator (WO)&lt;/span&gt;" style="text;html=1;align=center;verticalAlign=middle;resizable=0;points=[];autosize=1;fontStyle=1;fontSize=13;labelBackgroundColor=none;fontColor=#333333;" vertex="1" parent="myIwbRaZVC_E4C9uunCO-1">
          <mxGeometry x="1339.47" y="2926.75" width="171" height="20" as="geometry" />
        </mxCell>
        <mxCell id="KFF7oI3oYcerpHkxQwP5-81" value="AET" style="shape=image;html=1;verticalAlign=top;verticalLabelPosition=bottom;labelBackgroundColor=none;imageAspect=0;aspect=fixed;image=https://cdn4.iconfinder.com/data/icons/web-development-5/500/api-code-window-128.png;fontSize=13;" vertex="1" parent="myIwbRaZVC_E4C9uunCO-1">
          <mxGeometry x="1389.47" y="2585.75" width="34" height="34" as="geometry" />
        </mxCell>
        <mxCell id="KFF7oI3oYcerpHkxQwP5-82" value="" style="rounded=0;whiteSpace=wrap;html=1;fillColor=#dae8fc;strokeColor=#6c8ebf;fontSize=13;" vertex="1" parent="myIwbRaZVC_E4C9uunCO-1">
          <mxGeometry x="1802.47" y="2416.75" width="160" height="507" as="geometry" />
        </mxCell>
        <mxCell id="KFF7oI3oYcerpHkxQwP5-83" value="" style="endArrow=classic;html=1;entryX=0.5;entryY=0;entryDx=0;entryDy=0;strokeColor=#788AA3;startArrow=none;fontSize=13;" edge="1" parent="myIwbRaZVC_E4C9uunCO-1" source="KFF7oI3oYcerpHkxQwP5-98" target="KFF7oI3oYcerpHkxQwP5-88">
          <mxGeometry width="50" height="50" relative="1" as="geometry">
            <mxPoint x="1843" y="2461.75" as="sourcePoint" />
            <mxPoint x="1888.67" y="2462.25" as="targetPoint" />
          </mxGeometry>
        </mxCell>
        <mxCell id="KFF7oI3oYcerpHkxQwP5-84" value="/execute" style="shape=image;html=1;verticalAlign=top;verticalLabelPosition=bottom;labelBackgroundColor=none;imageAspect=0;aspect=fixed;image=https://cdn4.iconfinder.com/data/icons/web-development-5/500/api-code-window-128.png;fontSize=13;" vertex="1" parent="myIwbRaZVC_E4C9uunCO-1">
          <mxGeometry x="1762" y="2421" width="51" height="51" as="geometry" />
        </mxCell>
        <mxCell id="KFF7oI3oYcerpHkxQwP5-85" value="6.1" style="ellipse;whiteSpace=wrap;html=1;aspect=fixed;strokeWidth=2;fontFamily=Tahoma;spacingBottom=4;spacingRight=2;strokeColor=#9673a6;fillColor=#e1d5e7;fontSize=13;" vertex="1" parent="myIwbRaZVC_E4C9uunCO-1">
          <mxGeometry x="1831.47" y="2434" width="25" height="25" as="geometry" />
        </mxCell>
        <mxCell id="KFF7oI3oYcerpHkxQwP5-86" value="6.2" style="ellipse;whiteSpace=wrap;html=1;aspect=fixed;strokeWidth=2;fontFamily=Tahoma;spacingBottom=4;spacingRight=2;strokeColor=#9673a6;fillColor=#e1d5e7;fontSize=13;" vertex="1" parent="myIwbRaZVC_E4C9uunCO-1">
          <mxGeometry x="1831.47" y="2519.29" width="25" height="25" as="geometry" />
        </mxCell>
        <mxCell id="KFF7oI3oYcerpHkxQwP5-87" value="T13" style="edgeStyle=orthogonalEdgeStyle;rounded=0;orthogonalLoop=1;jettySize=auto;html=1;fontSize=13;" edge="1" parent="myIwbRaZVC_E4C9uunCO-1" source="KFF7oI3oYcerpHkxQwP5-88" target="KFF7oI3oYcerpHkxQwP5-110">
          <mxGeometry relative="1" as="geometry">
            <Array as="points">
              <mxPoint x="1722.47" y="2799.75" />
              <mxPoint x="1722.47" y="2799.75" />
            </Array>
          </mxGeometry>
        </mxCell>
        <mxCell id="KFF7oI3oYcerpHkxQwP5-88" value="6.5" style="ellipse;whiteSpace=wrap;html=1;aspect=fixed;strokeWidth=2;fontFamily=Tahoma;spacingBottom=4;spacingRight=2;strokeColor=#9673a6;fillColor=#e1d5e7;fontStyle=0;fontSize=13;" vertex="1" parent="myIwbRaZVC_E4C9uunCO-1">
          <mxGeometry x="1831.4700000000003" y="2786.75" width="25" height="25" as="geometry" />
        </mxCell>
        <mxCell id="KFF7oI3oYcerpHkxQwP5-89" value="Request" style="text;html=1;strokeColor=none;fillColor=none;align=center;verticalAlign=middle;whiteSpace=wrap;rounded=0;fontSize=13;" vertex="1" parent="myIwbRaZVC_E4C9uunCO-1">
          <mxGeometry x="1856.47" y="2439" width="68" height="20" as="geometry" />
        </mxCell>
        <mxCell id="KFF7oI3oYcerpHkxQwP5-90" value="Pull input resources" style="text;html=1;strokeColor=none;fillColor=none;align=center;verticalAlign=middle;whiteSpace=wrap;rounded=0;fontSize=13;" vertex="1" parent="myIwbRaZVC_E4C9uunCO-1">
          <mxGeometry x="1846.97" y="2519.29" width="85.5" height="20" as="geometry" />
        </mxCell>
        <mxCell id="KFF7oI3oYcerpHkxQwP5-91" value="T12" style="edgeStyle=orthogonalEdgeStyle;rounded=0;orthogonalLoop=1;jettySize=auto;html=1;entryX=1;entryY=0.75;entryDx=0;entryDy=0;fontSize=13;" edge="1" parent="myIwbRaZVC_E4C9uunCO-1" source="KFF7oI3oYcerpHkxQwP5-92" target="KFF7oI3oYcerpHkxQwP5-81">
          <mxGeometry relative="1" as="geometry">
            <mxPoint x="1670.0349999999999" y="2664.15" as="targetPoint" />
            <Array as="points">
              <mxPoint x="1730" y="2689" />
              <mxPoint x="1730" y="2611" />
            </Array>
          </mxGeometry>
        </mxCell>
        <mxCell id="KFF7oI3oYcerpHkxQwP5-92" value="Push output&lt;br style=&quot;font-size: 13px;&quot;&gt;resources" style="text;html=1;strokeColor=none;fillColor=none;align=center;verticalAlign=middle;whiteSpace=wrap;rounded=0;fontSize=13;" vertex="1" parent="myIwbRaZVC_E4C9uunCO-1">
          <mxGeometry x="1847.92" y="2679.25" width="92.8" height="20" as="geometry" />
        </mxCell>
        <mxCell id="KFF7oI3oYcerpHkxQwP5-93" value="Response" style="text;html=1;strokeColor=none;fillColor=none;align=center;verticalAlign=middle;whiteSpace=wrap;rounded=0;fontSize=13;" vertex="1" parent="myIwbRaZVC_E4C9uunCO-1">
          <mxGeometry x="1856.4800000000002" y="2790.1099999999997" width="68.8" height="20" as="geometry" />
        </mxCell>
        <mxCell id="KFF7oI3oYcerpHkxQwP5-94" value="" style="endArrow=classic;html=1;exitX=1;exitY=0.5;exitDx=0;exitDy=0;entryX=0;entryY=0.5;entryDx=0;entryDy=0;fontSize=13;" edge="1" parent="myIwbRaZVC_E4C9uunCO-1" source="KFF7oI3oYcerpHkxQwP5-84" target="KFF7oI3oYcerpHkxQwP5-85">
          <mxGeometry width="50" height="50" relative="1" as="geometry">
            <mxPoint x="1790.47" y="2488.2" as="sourcePoint" />
            <mxPoint x="1840.47" y="2438.2" as="targetPoint" />
          </mxGeometry>
        </mxCell>
        <mxCell id="KFF7oI3oYcerpHkxQwP5-95" value="6.3" style="ellipse;whiteSpace=wrap;html=1;aspect=fixed;strokeWidth=2;fontFamily=Tahoma;spacingBottom=4;spacingRight=2;strokeColor=#9673a6;fillColor=#e1d5e7;fontSize=13;" vertex="1" parent="myIwbRaZVC_E4C9uunCO-1">
          <mxGeometry x="1831.47" y="2590.25" width="25" height="25" as="geometry" />
        </mxCell>
        <mxCell id="KFF7oI3oYcerpHkxQwP5-96" value="T11" style="edgeStyle=orthogonalEdgeStyle;rounded=0;orthogonalLoop=1;jettySize=auto;html=1;entryX=1;entryY=0.5;entryDx=0;entryDy=0;fontSize=13;" edge="1" parent="myIwbRaZVC_E4C9uunCO-1" target="KFF7oI3oYcerpHkxQwP5-81">
          <mxGeometry relative="1" as="geometry">
            <mxPoint x="1670.0349999999999" y="2612.75" as="targetPoint" />
            <mxPoint x="1832.47" y="2533.75" as="sourcePoint" />
            <Array as="points">
              <mxPoint x="1730" y="2534" />
              <mxPoint x="1730" y="2603" />
            </Array>
          </mxGeometry>
        </mxCell>
        <mxCell id="KFF7oI3oYcerpHkxQwP5-97" value="Inference" style="text;html=1;strokeColor=none;fillColor=none;align=center;verticalAlign=middle;whiteSpace=wrap;rounded=0;fontSize=13;" vertex="1" parent="myIwbRaZVC_E4C9uunCO-1">
          <mxGeometry x="1930.25" y="2590.25" width="85.5" height="20" as="geometry" />
        </mxCell>
        <mxCell id="KFF7oI3oYcerpHkxQwP5-98" value="6.4" style="ellipse;whiteSpace=wrap;html=1;aspect=fixed;strokeWidth=2;fontFamily=Tahoma;spacingBottom=4;spacingRight=2;strokeColor=#9673a6;fillColor=#e1d5e7;fontSize=13;" vertex="1" parent="myIwbRaZVC_E4C9uunCO-1">
          <mxGeometry x="1831.47" y="2680.96" width="25" height="25" as="geometry" />
        </mxCell>
        <mxCell id="KFF7oI3oYcerpHkxQwP5-99" value="" style="endArrow=none;html=1;entryX=0.5;entryY=0;entryDx=0;entryDy=0;strokeColor=#788AA3;fontSize=13;" edge="1" parent="myIwbRaZVC_E4C9uunCO-1" target="KFF7oI3oYcerpHkxQwP5-98">
          <mxGeometry width="50" height="50" relative="1" as="geometry">
            <mxPoint x="1842.9999999999998" y="2461.75" as="sourcePoint" />
            <mxPoint x="1843.9700000000003" y="2785.25" as="targetPoint" />
          </mxGeometry>
        </mxCell>
        <mxCell id="KFF7oI3oYcerpHkxQwP5-100" value="13" style="edgeStyle=orthogonalEdgeStyle;rounded=0;orthogonalLoop=1;jettySize=auto;html=1;entryX=1;entryY=0.5;entryDx=0;entryDy=0;fontSize=13;" edge="1" parent="myIwbRaZVC_E4C9uunCO-1" source="KFF7oI3oYcerpHkxQwP5-103" target="KFF7oI3oYcerpHkxQwP5-115">
          <mxGeometry relative="1" as="geometry" />
        </mxCell>
        <mxCell id="KFF7oI3oYcerpHkxQwP5-101" value="Prediction Summary" style="edgeLabel;html=1;align=center;verticalAlign=middle;resizable=0;points=[];labelBackgroundColor=none;fontSize=13;" vertex="1" connectable="0" parent="KFF7oI3oYcerpHkxQwP5-100">
          <mxGeometry x="-0.1037" y="-1" relative="1" as="geometry">
            <mxPoint x="-4" y="14" as="offset" />
          </mxGeometry>
        </mxCell>
        <mxCell id="KFF7oI3oYcerpHkxQwP5-102" value="T13.2" style="edgeStyle=orthogonalEdgeStyle;rounded=0;orthogonalLoop=1;jettySize=auto;html=1;fontSize=13;" edge="1" parent="myIwbRaZVC_E4C9uunCO-1" source="KFF7oI3oYcerpHkxQwP5-103" target="KFF7oI3oYcerpHkxQwP5-64">
          <mxGeometry x="0.7469" relative="1" as="geometry">
            <Array as="points">
              <mxPoint x="1392.47" y="2803.75" />
            </Array>
            <mxPoint as="offset" />
          </mxGeometry>
        </mxCell>
        <mxCell id="KFF7oI3oYcerpHkxQwP5-103" value="Main" style="shape=step;perimeter=stepPerimeter;whiteSpace=wrap;html=1;fixedSize=1;fillColor=#f5f5f5;strokeColor=#666666;fontColor=#333333;direction=west;fontSize=13;" vertex="1" parent="myIwbRaZVC_E4C9uunCO-1">
          <mxGeometry x="1488.92" y="2790.75" width="59.5" height="40" as="geometry" />
        </mxCell>
        <mxCell id="KFF7oI3oYcerpHkxQwP5-105" value="12" style="edgeStyle=orthogonalEdgeStyle;rounded=0;orthogonalLoop=1;jettySize=auto;html=1;entryX=0.5;entryY=0;entryDx=0;entryDy=0;fontSize=13;" edge="1" parent="myIwbRaZVC_E4C9uunCO-1" source="KFF7oI3oYcerpHkxQwP5-107" target="KFF7oI3oYcerpHkxQwP5-115">
          <mxGeometry x="0.4586" relative="1" as="geometry">
            <mxPoint x="1322.47" y="2813.75" as="targetPoint" />
            <Array as="points">
              <mxPoint x="1314.47" y="2788.75" />
              <mxPoint x="1314.47" y="2792.75" />
            </Array>
            <mxPoint as="offset" />
          </mxGeometry>
        </mxCell>
        <mxCell id="KFF7oI3oYcerpHkxQwP5-106" value="In Progress, Summary" style="edgeLabel;html=1;align=center;verticalAlign=middle;resizable=0;points=[];labelBackgroundColor=none;fontSize=13;" vertex="1" connectable="0" parent="KFF7oI3oYcerpHkxQwP5-105">
          <mxGeometry x="-0.1885" y="-1" relative="1" as="geometry">
            <mxPoint x="-14" y="-4" as="offset" />
          </mxGeometry>
        </mxCell>
        <mxCell id="KFF7oI3oYcerpHkxQwP5-107" value="" style="shape=step;perimeter=stepPerimeter;whiteSpace=wrap;html=1;fixedSize=1;fillColor=#f8cecc;strokeColor=#b85450;direction=west;fontSize=13;" vertex="1" parent="myIwbRaZVC_E4C9uunCO-1">
          <mxGeometry x="1550.1200000000001" y="2773.75" width="59.5" height="29.36" as="geometry" />
        </mxCell>
        <mxCell id="KFF7oI3oYcerpHkxQwP5-109" value="" style="shape=step;perimeter=stepPerimeter;whiteSpace=wrap;html=1;fixedSize=1;fillColor=#f8cecc;strokeColor=#b85450;direction=west;fontSize=13;" vertex="1" parent="myIwbRaZVC_E4C9uunCO-1">
          <mxGeometry x="1590.02" y="2773.1099999999997" width="59.5" height="30" as="geometry" />
        </mxCell>
        <mxCell id="KFF7oI3oYcerpHkxQwP5-110" value="" style="shape=image;html=1;verticalAlign=top;verticalLabelPosition=bottom;labelBackgroundColor=none;imageAspect=0;aspect=fixed;image=https://cdn4.iconfinder.com/data/icons/web-development-5/500/api-code-window-128.png;fontSize=13;" vertex="1" parent="myIwbRaZVC_E4C9uunCO-1">
          <mxGeometry x="1656.47" y="2793.11" width="34" height="34" as="geometry" />
        </mxCell>
        <mxCell id="KFF7oI3oYcerpHkxQwP5-111" value="" style="shape=step;perimeter=stepPerimeter;whiteSpace=wrap;html=1;fixedSize=1;fillColor=#f5f5f5;strokeColor=#666666;fontColor=#333333;direction=west;fontSize=13;" vertex="1" parent="myIwbRaZVC_E4C9uunCO-1">
          <mxGeometry x="1142.47" y="2790.1099999999997" width="59.5" height="40" as="geometry" />
        </mxCell>
        <mxCell id="KFF7oI3oYcerpHkxQwP5-112" value="" style="shape=step;perimeter=stepPerimeter;whiteSpace=wrap;html=1;fixedSize=1;fillColor=#f5f5f5;strokeColor=#666666;fontColor=#333333;direction=west;fontSize=13;" vertex="1" parent="myIwbRaZVC_E4C9uunCO-1">
          <mxGeometry x="1182.07" y="2790.1099999999997" width="59.5" height="40" as="geometry" />
        </mxCell>
        <mxCell id="KFF7oI3oYcerpHkxQwP5-113" value="" style="edgeStyle=orthogonalEdgeStyle;rounded=0;orthogonalLoop=1;jettySize=auto;html=1;fontSize=13;" edge="1" parent="myIwbRaZVC_E4C9uunCO-1" source="KFF7oI3oYcerpHkxQwP5-114" target="KFF7oI3oYcerpHkxQwP5-125">
          <mxGeometry relative="1" as="geometry" />
        </mxCell>
        <mxCell id="KFF7oI3oYcerpHkxQwP5-114" value="" style="shape=step;perimeter=stepPerimeter;whiteSpace=wrap;html=1;fixedSize=1;fillColor=#ffe6cc;strokeColor=#d79b00;direction=west;fontSize=13;" vertex="1" parent="myIwbRaZVC_E4C9uunCO-1">
          <mxGeometry x="1222.97" y="2790.1099999999997" width="59.5" height="40" as="geometry" />
        </mxCell>
        <mxCell id="KFF7oI3oYcerpHkxQwP5-115" value="/response" style="shape=image;html=1;verticalAlign=top;verticalLabelPosition=bottom;labelBackgroundColor=none;imageAspect=0;aspect=fixed;image=https://cdn4.iconfinder.com/data/icons/web-development-5/500/api-code-window-128.png;fontSize=13;" vertex="1" parent="myIwbRaZVC_E4C9uunCO-1">
          <mxGeometry x="1280.47" y="2793.1099999999997" width="34" height="34" as="geometry" />
        </mxCell>
        <mxCell id="KFF7oI3oYcerpHkxQwP5-116" value="/status" style="shape=image;html=1;verticalAlign=top;verticalLabelPosition=bottom;labelBackgroundColor=none;imageAspect=0;aspect=fixed;image=https://cdn4.iconfinder.com/data/icons/web-development-5/500/api-code-window-128.png;fontSize=13;" vertex="1" parent="myIwbRaZVC_E4C9uunCO-1">
          <mxGeometry x="1112.97" y="2791.81" width="34" height="34" as="geometry" />
        </mxCell>
        <mxCell id="KFF7oI3oYcerpHkxQwP5-117" value="Push to cloud" style="shape=image;html=1;verticalAlign=top;verticalLabelPosition=bottom;labelBackgroundColor=none;imageAspect=0;aspect=fixed;image=https://cdn4.iconfinder.com/data/icons/web-development-5/500/api-code-window-128.png;fontSize=13;" vertex="1" parent="myIwbRaZVC_E4C9uunCO-1">
          <mxGeometry x="767.1899999999999" y="2571.75" width="34" height="34" as="geometry" />
        </mxCell>
        <mxCell id="KFF7oI3oYcerpHkxQwP5-118" value="" style="shape=step;perimeter=stepPerimeter;whiteSpace=wrap;html=1;fixedSize=1;fillColor=#f5f5f5;strokeColor=#666666;fontColor=#333333;fontSize=13;" vertex="1" parent="myIwbRaZVC_E4C9uunCO-1">
          <mxGeometry x="769.19" y="2708.75" width="61" height="40" as="geometry" />
        </mxCell>
        <mxCell id="KFF7oI3oYcerpHkxQwP5-119" value="" style="shape=step;perimeter=stepPerimeter;whiteSpace=wrap;html=1;fixedSize=1;fillColor=#f5f5f5;strokeColor=#666666;fontColor=#333333;fontSize=13;" vertex="1" parent="myIwbRaZVC_E4C9uunCO-1">
          <mxGeometry x="808.79" y="2708.75" width="59.5" height="40" as="geometry" />
        </mxCell>
        <mxCell id="KFF7oI3oYcerpHkxQwP5-120" value="12&lt;br style=&quot;font-size: 13px;&quot;&gt;Pull from cloud" style="edgeStyle=orthogonalEdgeStyle;rounded=0;orthogonalLoop=1;jettySize=auto;html=1;fontSize=13;" edge="1" parent="myIwbRaZVC_E4C9uunCO-1" source="KFF7oI3oYcerpHkxQwP5-121" target="KFF7oI3oYcerpHkxQwP5-2">
          <mxGeometry relative="1" as="geometry">
            <Array as="points">
              <mxPoint x="965.47" y="2728.75" />
              <mxPoint x="965.47" y="2683.75" />
            </Array>
          </mxGeometry>
        </mxCell>
        <mxCell id="KFF7oI3oYcerpHkxQwP5-121" value="" style="shape=step;perimeter=stepPerimeter;whiteSpace=wrap;html=1;fixedSize=1;fillColor=#ffe6cc;strokeColor=#d79b00;fontSize=13;" vertex="1" parent="myIwbRaZVC_E4C9uunCO-1">
          <mxGeometry x="848.69" y="2708.75" width="59.5" height="40" as="geometry" />
        </mxCell>
        <mxCell id="KFF7oI3oYcerpHkxQwP5-122" value="&lt;font style=&quot;font-size: 13px;&quot;&gt;EAI Pull/post-processing Scenario&lt;/font&gt;" style="text;html=1;align=center;verticalAlign=middle;resizable=0;points=[];autosize=1;fontStyle=1;fontSize=13;labelBackgroundColor=none;fontColor=#333333;" vertex="1" parent="myIwbRaZVC_E4C9uunCO-1">
          <mxGeometry x="589.1900000000002" y="2873.75" width="223" height="20" as="geometry" />
        </mxCell>
        <mxCell id="KFF7oI3oYcerpHkxQwP5-125" value="DDB" style="shape=datastore;whiteSpace=wrap;html=1;fontSize=13;fillColor=#ffcc99;strokeColor=#36393d;" vertex="1" parent="myIwbRaZVC_E4C9uunCO-1">
          <mxGeometry x="1218.72" y="2639.0699999999997" width="68" height="62.36" as="geometry" />
        </mxCell>
        <mxCell id="KFF7oI3oYcerpHkxQwP5-126" value="" style="edgeStyle=orthogonalEdgeStyle;rounded=0;orthogonalLoop=1;jettySize=auto;html=1;entryX=0.5;entryY=0;entryDx=0;entryDy=0;fontSize=13;" edge="1" parent="myIwbRaZVC_E4C9uunCO-1" source="KFF7oI3oYcerpHkxQwP5-127" target="KFF7oI3oYcerpHkxQwP5-131">
          <mxGeometry relative="1" as="geometry">
            <mxPoint x="-7.480000000000273" y="2849.81" as="targetPoint" />
          </mxGeometry>
        </mxCell>
        <mxCell id="KFF7oI3oYcerpHkxQwP5-127" value="" style="shape=step;perimeter=stepPerimeter;whiteSpace=wrap;html=1;fixedSize=1;fillColor=#f5f5f5;strokeColor=#666666;fontColor=#333333;direction=west;fontSize=13;" vertex="1" parent="myIwbRaZVC_E4C9uunCO-1">
          <mxGeometry x="140.10999999999993" y="2829.81" width="59.5" height="40" as="geometry" />
        </mxCell>
        <mxCell id="KFF7oI3oYcerpHkxQwP5-128" value="" style="shape=step;perimeter=stepPerimeter;whiteSpace=wrap;html=1;fixedSize=1;fillColor=#f5f5f5;strokeColor=#666666;fontColor=#333333;direction=west;fontSize=13;" vertex="1" parent="myIwbRaZVC_E4C9uunCO-1">
          <mxGeometry x="179.7099999999998" y="2829.81" width="59.5" height="40" as="geometry" />
        </mxCell>
        <mxCell id="KFF7oI3oYcerpHkxQwP5-129" value="" style="shape=step;perimeter=stepPerimeter;whiteSpace=wrap;html=1;fixedSize=1;fillColor=#ffe6cc;strokeColor=#d79b00;direction=west;fontSize=13;" vertex="1" parent="myIwbRaZVC_E4C9uunCO-1">
          <mxGeometry x="208.6099999999999" y="2829.81" width="59.5" height="40" as="geometry" />
        </mxCell>
        <mxCell id="KFF7oI3oYcerpHkxQwP5-130" value="/response" style="shape=image;html=1;verticalAlign=top;verticalLabelPosition=bottom;labelBackgroundColor=none;imageAspect=0;aspect=fixed;image=https://cdn4.iconfinder.com/data/icons/web-development-5/500/api-code-window-128.png;fontSize=13;" vertex="1" parent="myIwbRaZVC_E4C9uunCO-1">
          <mxGeometry x="268.1099999999999" y="2832.81" width="34" height="34" as="geometry" />
        </mxCell>
        <mxCell id="KFF7oI3oYcerpHkxQwP5-131" value="Summary&amp;nbsp;&lt;br style=&quot;font-size: 13px;&quot;&gt;Notification" style="shape=image;html=1;verticalAlign=top;verticalLabelPosition=bottom;labelBackgroundColor=none;imageAspect=0;aspect=fixed;image=https://cdn4.iconfinder.com/data/icons/web-development-5/500/api-code-window-128.png;direction=south;fontSize=13;" vertex="1" parent="myIwbRaZVC_E4C9uunCO-1">
          <mxGeometry x="-23.0000000000001" y="2832.81" width="34" height="34" as="geometry" />
        </mxCell>
        <mxCell id="KFF7oI3oYcerpHkxQwP5-132" value="" style="edgeStyle=orthogonalEdgeStyle;rounded=0;orthogonalLoop=1;jettySize=auto;html=1;entryX=1;entryY=0.5;entryDx=0;entryDy=0;fontSize=13;" edge="1" parent="myIwbRaZVC_E4C9uunCO-1" source="KFF7oI3oYcerpHkxQwP5-133" target="KFF7oI3oYcerpHkxQwP5-130">
          <mxGeometry relative="1" as="geometry" />
        </mxCell>
        <mxCell id="KFF7oI3oYcerpHkxQwP5-133" value="" style="shape=step;perimeter=stepPerimeter;whiteSpace=wrap;html=1;fixedSize=1;fillColor=#f5f5f5;strokeColor=#666666;fontColor=#333333;direction=west;fontSize=13;" vertex="1" parent="myIwbRaZVC_E4C9uunCO-1">
          <mxGeometry x="544.47" y="2829.81" width="59.5" height="40" as="geometry" />
        </mxCell>
        <mxCell id="KFF7oI3oYcerpHkxQwP5-134" value="" style="shape=step;perimeter=stepPerimeter;whiteSpace=wrap;html=1;fixedSize=1;fillColor=#f5f5f5;strokeColor=#666666;fontColor=#333333;direction=west;fontSize=13;" vertex="1" parent="myIwbRaZVC_E4C9uunCO-1">
          <mxGeometry x="603.02" y="2830.75" width="59.5" height="40" as="geometry" />
        </mxCell>
        <mxCell id="KFF7oI3oYcerpHkxQwP5-135" value="" style="shape=step;perimeter=stepPerimeter;whiteSpace=wrap;html=1;fixedSize=1;fillColor=#ffe6cc;strokeColor=#d79b00;direction=west;fontSize=13;" vertex="1" parent="myIwbRaZVC_E4C9uunCO-1">
          <mxGeometry x="642.6200000000001" y="2829.81" width="59.5" height="40" as="geometry" />
        </mxCell>
        <mxCell id="KFF7oI3oYcerpHkxQwP5-144" value="" style="shape=step;perimeter=stepPerimeter;whiteSpace=wrap;html=1;fixedSize=1;fillColor=#f5f5f5;strokeColor=#666666;fontColor=#333333;direction=west;fontSize=13;" vertex="1" parent="myIwbRaZVC_E4C9uunCO-1">
          <mxGeometry x="575.52" y="2830.75" width="59.5" height="40" as="geometry" />
        </mxCell>
        <mxCell id="KFF7oI3oYcerpHkxQwP5-145" value="13" style="endArrow=classic;html=1;rounded=0;entryX=1;entryY=0.7;entryDx=0;entryDy=0;fontSize=13;" edge="1" parent="myIwbRaZVC_E4C9uunCO-1">
          <mxGeometry width="50" height="50" relative="1" as="geometry">
            <mxPoint x="742.47" y="2678.6" as="sourcePoint" />
            <mxPoint x="-108.71000000000029" y="2678.252" as="targetPoint" />
          </mxGeometry>
        </mxCell>
        <mxCell id="KFF7oI3oYcerpHkxQwP5-146" value="CSTORE output" style="edgeLabel;html=1;align=center;verticalAlign=middle;resizable=0;points=[];fontSize=13;" vertex="1" connectable="0" parent="KFF7oI3oYcerpHkxQwP5-145">
          <mxGeometry x="0.152" y="-1" relative="1" as="geometry">
            <mxPoint x="-1" as="offset" />
          </mxGeometry>
        </mxCell>
        <mxCell id="KFF7oI3oYcerpHkxQwP5-147" value="11" style="edgeStyle=orthogonalEdgeStyle;rounded=0;orthogonalLoop=1;jettySize=auto;html=1;dashed=1;fontSize=13;" edge="1" parent="myIwbRaZVC_E4C9uunCO-1" source="KFF7oI3oYcerpHkxQwP5-150" target="KFF7oI3oYcerpHkxQwP5-151">
          <mxGeometry relative="1" as="geometry" />
        </mxCell>
        <mxCell id="KFF7oI3oYcerpHkxQwP5-148" value="authn, z" style="edgeLabel;html=1;align=center;verticalAlign=middle;resizable=0;points=[];labelBackgroundColor=none;fontSize=13;" vertex="1" connectable="0" parent="KFF7oI3oYcerpHkxQwP5-147">
          <mxGeometry x="-0.1937" relative="1" as="geometry">
            <mxPoint y="15" as="offset" />
          </mxGeometry>
        </mxCell>
        <mxCell id="KFF7oI3oYcerpHkxQwP5-149" value="T2" style="edgeStyle=orthogonalEdgeStyle;rounded=0;orthogonalLoop=1;jettySize=auto;html=1;fontSize=13;" edge="1" parent="myIwbRaZVC_E4C9uunCO-1" source="KFF7oI3oYcerpHkxQwP5-150" target="KFF7oI3oYcerpHkxQwP5-79">
          <mxGeometry relative="1" as="geometry" />
        </mxCell>
        <mxCell id="KFF7oI3oYcerpHkxQwP5-150" value="IDAM&lt;br style=&quot;font-size: 13px;&quot;&gt;Proxy" style="shape=image;html=1;verticalAlign=top;verticalLabelPosition=bottom;labelBackgroundColor=none;imageAspect=0;aspect=fixed;image=https://cdn4.iconfinder.com/data/icons/web-development-5/500/api-code-window-128.png;fontSize=13;" vertex="1" parent="myIwbRaZVC_E4C9uunCO-1">
          <mxGeometry x="1389.47" y="2434" width="34" height="34" as="geometry" />
        </mxCell>
        <mxCell id="KFF7oI3oYcerpHkxQwP5-151" value="IDAM&lt;br style=&quot;font-size: 13px;&quot;&gt;" style="shape=image;html=1;verticalAlign=top;verticalLabelPosition=bottom;labelBackgroundColor=none;imageAspect=0;aspect=fixed;image=https://cdn4.iconfinder.com/data/icons/web-development-5/500/api-code-window-128.png;fontSize=13;" vertex="1" parent="myIwbRaZVC_E4C9uunCO-1">
          <mxGeometry x="1389.47" y="2320" width="34" height="34" as="geometry" />
        </mxCell>
        <mxCell id="KFF7oI3oYcerpHkxQwP5-152" value="" style="shape=step;perimeter=stepPerimeter;whiteSpace=wrap;html=1;fixedSize=1;fillColor=#ffe6cc;strokeColor=#d79b00;fontSize=13;" vertex="1" parent="myIwbRaZVC_E4C9uunCO-1">
          <mxGeometry x="1553.42" y="2472" width="55.2" height="25.54" as="geometry" />
        </mxCell>
        <mxCell id="KFF7oI3oYcerpHkxQwP5-153" value="" style="shape=step;perimeter=stepPerimeter;whiteSpace=wrap;html=1;fixedSize=1;fillColor=#ffe6cc;strokeColor=#d79b00;fontSize=13;" vertex="1" parent="myIwbRaZVC_E4C9uunCO-1">
          <mxGeometry x="1588.3200000000002" y="2472" width="59.5" height="25.54" as="geometry" />
        </mxCell>
        <mxCell id="KFF7oI3oYcerpHkxQwP5-154" value="" style="shape=step;perimeter=stepPerimeter;whiteSpace=wrap;html=1;fixedSize=1;fillColor=#ffe6cc;strokeColor=#d79b00;direction=west;fontSize=13;" vertex="1" parent="myIwbRaZVC_E4C9uunCO-1">
          <mxGeometry x="1548.42" y="2813.75" width="59.5" height="29.36" as="geometry" />
        </mxCell>
        <mxCell id="KFF7oI3oYcerpHkxQwP5-155" value="" style="shape=step;perimeter=stepPerimeter;whiteSpace=wrap;html=1;fixedSize=1;fillColor=#ffe6cc;strokeColor=#d79b00;direction=west;fontSize=13;" vertex="1" parent="myIwbRaZVC_E4C9uunCO-1">
          <mxGeometry x="1588.32" y="2813.75" width="59.5" height="30" as="geometry" />
        </mxCell>
        <mxCell id="KFF7oI3oYcerpHkxQwP5-156" value="" style="edgeStyle=orthogonalEdgeStyle;rounded=0;orthogonalLoop=1;jettySize=auto;html=1;entryX=0;entryY=0.5;entryDx=0;entryDy=0;fontSize=13;" edge="1" parent="myIwbRaZVC_E4C9uunCO-1" target="KFF7oI3oYcerpHkxQwP5-151">
          <mxGeometry relative="1" as="geometry">
            <mxPoint x="902.47" y="2337.05" as="sourcePoint" />
            <Array as="points">
              <mxPoint x="602.47" y="2336.75" />
            </Array>
          </mxGeometry>
        </mxCell>
        <mxCell id="KFF7oI3oYcerpHkxQwP5-157" value="Tenant Authorization" style="edgeLabel;html=1;align=center;verticalAlign=middle;resizable=0;points=[];fontSize=13;" connectable="0" vertex="1" parent="KFF7oI3oYcerpHkxQwP5-156">
          <mxGeometry x="0.1776" y="-3" relative="1" as="geometry">
            <mxPoint y="-5" as="offset" />
          </mxGeometry>
        </mxCell>
        <mxCell id="KFF7oI3oYcerpHkxQwP5-158" value="T13.2" style="edgeStyle=orthogonalEdgeStyle;rounded=0;orthogonalLoop=1;jettySize=auto;html=1;entryX=1;entryY=0.75;entryDx=0;entryDy=0;exitX=0.75;exitY=1;exitDx=0;exitDy=0;fontSize=13;" edge="1" parent="myIwbRaZVC_E4C9uunCO-1" source="KFF7oI3oYcerpHkxQwP5-107" target="KFF7oI3oYcerpHkxQwP5-150">
          <mxGeometry x="0.787" y="14" relative="1" as="geometry">
            <mxPoint x="1567.8200000000004" y="2715.11" as="targetPoint" />
            <mxPoint as="offset" />
          </mxGeometry>
        </mxCell>
        <mxCell id="KFF7oI3oYcerpHkxQwP5-160" value="" style="edgeStyle=orthogonalEdgeStyle;rounded=0;orthogonalLoop=1;jettySize=auto;html=1;entryX=0;entryY=0.5;entryDx=0;entryDy=0;fontSize=13;" edge="1" parent="myIwbRaZVC_E4C9uunCO-1" target="KFF7oI3oYcerpHkxQwP5-56">
          <mxGeometry relative="1" as="geometry">
            <mxPoint x="1141.47" y="2504.25" as="sourcePoint" />
            <Array as="points">
              <mxPoint x="841.47" y="2504.75" />
            </Array>
            <mxPoint x="1282.47" y="2504.25" as="targetPoint" />
          </mxGeometry>
        </mxCell>
        <mxCell id="KFF7oI3oYcerpHkxQwP5-161" value="Poll for data presence" style="edgeLabel;html=1;align=center;verticalAlign=middle;resizable=0;points=[];fontSize=13;" connectable="0" vertex="1" parent="KFF7oI3oYcerpHkxQwP5-160">
          <mxGeometry x="0.1776" y="-3" relative="1" as="geometry">
            <mxPoint x="32" y="-3" as="offset" />
          </mxGeometry>
        </mxCell>
        <mxCell id="KFF7oI3oYcerpHkxQwP5-166" value="11" style="edgeStyle=orthogonalEdgeStyle;rounded=0;orthogonalLoop=1;jettySize=auto;html=1;fontSize=13;" edge="1" parent="myIwbRaZVC_E4C9uunCO-1">
          <mxGeometry relative="1" as="geometry">
            <Array as="points">
              <mxPoint x="1202.47" y="2736.75" />
              <mxPoint x="1202.47" y="2677.75" />
            </Array>
            <mxPoint x="1332.47" y="2736.75" as="sourcePoint" />
            <mxPoint x="1131.47" y="2677.95" as="targetPoint" />
          </mxGeometry>
        </mxCell>
        <mxCell id="KFF7oI3oYcerpHkxQwP5-169" value="T13.2" style="edgeStyle=orthogonalEdgeStyle;rounded=0;orthogonalLoop=1;jettySize=auto;html=1;entryX=0.15;entryY=0.05;entryDx=0;entryDy=0;entryPerimeter=0;fontSize=13;" edge="1" parent="myIwbRaZVC_E4C9uunCO-1" target="KFF7oI3oYcerpHkxQwP5-64">
          <mxGeometry x="0.4688" relative="1" as="geometry">
            <mxPoint x="1398.47" y="2454.75" as="sourcePoint" />
            <mxPoint x="1318.47" y="2564.57" as="targetPoint" />
            <Array as="points">
              <mxPoint x="1398.47" y="2454.75" />
              <mxPoint x="1347.47" y="2454.75" />
            </Array>
            <mxPoint as="offset" />
          </mxGeometry>
        </mxCell>
        <mxCell id="KFF7oI3oYcerpHkxQwP5-173" value="CC1: REST 2 API via Reference Adapter&amp;nbsp;" style="shape=callout;whiteSpace=wrap;html=1;perimeter=calloutPerimeter;fontSize=13;" vertex="1" parent="myIwbRaZVC_E4C9uunCO-1">
          <mxGeometry x="443.47" y="2300" width="120" height="80" as="geometry" />
        </mxCell>
        <mxCell id="KFF7oI3oYcerpHkxQwP5-174" value="CC2: Use HSB" style="shape=callout;whiteSpace=wrap;html=1;perimeter=calloutPerimeter;fontSize=13;" vertex="1" parent="myIwbRaZVC_E4C9uunCO-1">
          <mxGeometry x="632.5500000000001" y="2380" width="120" height="80" as="geometry" />
        </mxCell>
        <mxCell id="KFF7oI3oYcerpHkxQwP5-175" value="SC3: Use Reference Adapter&amp;nbsp;" style="shape=callout;whiteSpace=wrap;html=1;perimeter=calloutPerimeter;fontSize=13;" vertex="1" parent="myIwbRaZVC_E4C9uunCO-1">
          <mxGeometry x="1026.97" y="2341" width="120" height="80" as="geometry" />
        </mxCell>
        <mxCell id="KFF7oI3oYcerpHkxQwP5-176" value="3P1: Use Reference Adapter&amp;nbsp;" style="shape=callout;whiteSpace=wrap;html=1;perimeter=calloutPerimeter;fontSize=13;" vertex="1" parent="myIwbRaZVC_E4C9uunCO-1">
          <mxGeometry x="1781.5" y="2336.75" width="120" height="80" as="geometry" />
        </mxCell>
        <mxCell id="KFF7oI3oYcerpHkxQwP5-183" value="EO1: Build Main workflow, add subscription check" style="shape=callout;whiteSpace=wrap;html=1;perimeter=calloutPerimeter;fontSize=13;" vertex="1" parent="myIwbRaZVC_E4C9uunCO-1">
          <mxGeometry x="1475.2" y="2274" width="120" height="80" as="geometry" />
        </mxCell>
        <mxCell id="KFF7oI3oYcerpHkxQwP5-184" value="" style="sketch=0;pointerEvents=1;shadow=0;dashed=0;html=1;strokeColor=none;fillColor=#DF8C42;labelPosition=center;verticalLabelPosition=bottom;verticalAlign=top;align=center;outlineConnect=0;shape=mxgraph.veeam2.aws_s3;fontSize=13;" vertex="1" parent="myIwbRaZVC_E4C9uunCO-1">
          <mxGeometry x="1956" y="2519.29" width="34" height="34" as="geometry" />
        </mxCell>
        <mxCell id="KFF7oI3oYcerpHkxQwP5-185" value="3P3: Share same as POD as 3P, share data on volume" style="shape=callout;whiteSpace=wrap;html=1;perimeter=calloutPerimeter;fontSize=13;" vertex="1" parent="myIwbRaZVC_E4C9uunCO-1">
          <mxGeometry x="1901.5" y="2318.75" width="120" height="80" as="geometry" />
        </mxCell>
        <mxCell id="KFF7oI3oYcerpHkxQwP5-186" value="CC3 Source, push FHIR - both sides" style="shape=callout;whiteSpace=wrap;html=1;perimeter=calloutPerimeter;fontSize=13;" vertex="1" parent="myIwbRaZVC_E4C9uunCO-1">
          <mxGeometry x="774" y="2354" width="120" height="80" as="geometry" />
        </mxCell>
        <mxCell id="KFF7oI3oYcerpHkxQwP5-187" value="SC1: Replace Mongo with RDS" style="shape=callout;whiteSpace=wrap;html=1;perimeter=calloutPerimeter;fontSize=13;" vertex="1" parent="myIwbRaZVC_E4C9uunCO-1">
          <mxGeometry x="1194.47" y="2351" width="120" height="80" as="geometry" />
        </mxCell>
        <mxCell id="KFF7oI3oYcerpHkxQwP5-189" value="SC4: Accept and Route FHIR to right CDIP and back" style="shape=callout;whiteSpace=wrap;html=1;perimeter=calloutPerimeter;fontSize=13;" vertex="1" parent="myIwbRaZVC_E4C9uunCO-1">
          <mxGeometry x="1192" y="2240" width="120" height="83" as="geometry" />
        </mxCell>
        <mxCell id="KFF7oI3oYcerpHkxQwP5-190" value="&amp;nbsp; &amp;nbsp; &amp;nbsp; &amp;nbsp; &amp;nbsp; &amp;nbsp; &amp;nbsp; &amp;nbsp; &amp;nbsp; &amp;nbsp; &amp;nbsp; &amp;nbsp; &amp;nbsp; &amp;nbsp; &amp;nbsp; &amp;nbsp; &amp;nbsp; &amp;nbsp; &amp;nbsp; &amp;nbsp; &amp;nbsp; &amp;nbsp; &amp;nbsp; &amp;nbsp; &amp;nbsp; &amp;nbsp;&amp;nbsp;" style="rounded=0;whiteSpace=wrap;html=1;fontSize=13;" vertex="1" parent="myIwbRaZVC_E4C9uunCO-1">
          <mxGeometry x="77" y="3000" width="2083" height="36" as="geometry" />
        </mxCell>
        <mxCell id="KFF7oI3oYcerpHkxQwP5-192" value="WO1: refactor, pass priors to CC, REST 2 calls to CC" style="shape=callout;whiteSpace=wrap;html=1;perimeter=calloutPerimeter;fontSize=13;" vertex="1" parent="myIwbRaZVC_E4C9uunCO-1">
          <mxGeometry x="107.39000000000004" y="2349.75" width="120" height="80" as="geometry" />
        </mxCell>
        <mxCell id="KFF7oI3oYcerpHkxQwP5-193" value="SC2: Use HSB" style="shape=callout;whiteSpace=wrap;html=1;perimeter=calloutPerimeter;fontSize=13;" vertex="1" parent="myIwbRaZVC_E4C9uunCO-1">
          <mxGeometry x="1102.97" y="2297" width="120" height="80" as="geometry" />
        </mxCell>
        <mxCell id="KFF7oI3oYcerpHkxQwP5-194" value="WO2: list EMR resources" style="shape=callout;whiteSpace=wrap;html=1;perimeter=calloutPerimeter;fontSize=13;" vertex="1" parent="myIwbRaZVC_E4C9uunCO-1">
          <mxGeometry x="236.74000000000004" y="2318.75" width="120" height="80" as="geometry" />
        </mxCell>
        <mxCell id="KFF7oI3oYcerpHkxQwP5-195" value="EO2: Deprecate Subscription Check" style="shape=callout;whiteSpace=wrap;html=1;perimeter=calloutPerimeter;fontSize=13;" vertex="1" parent="myIwbRaZVC_E4C9uunCO-1">
          <mxGeometry x="1344" y="2230" width="120" height="80" as="geometry" />
        </mxCell>
        <mxCell id="KFF7oI3oYcerpHkxQwP5-196" value="3P2: Direct Data exchange&amp;nbsp;" style="shape=callout;whiteSpace=wrap;html=1;perimeter=calloutPerimeter;fontSize=13;" vertex="1" parent="myIwbRaZVC_E4C9uunCO-1">
          <mxGeometry x="1813" y="2256.75" width="120" height="80" as="geometry" />
        </mxCell>
        <mxCell id="KFF7oI3oYcerpHkxQwP5-198" value="DI1: call de-id" style="shape=callout;whiteSpace=wrap;html=1;perimeter=calloutPerimeter;fontSize=13;direction=west;" vertex="1" parent="myIwbRaZVC_E4C9uunCO-1">
          <mxGeometry x="582.12" y="2916.75" width="120" height="80" as="geometry" />
        </mxCell>
        <mxCell id="KFF7oI3oYcerpHkxQwP5-199" value="DI2: Re-link" style="shape=callout;whiteSpace=wrap;html=1;perimeter=calloutPerimeter;fontSize=13;direction=west;" vertex="1" parent="myIwbRaZVC_E4C9uunCO-1">
          <mxGeometry x="721.72" y="2916.75" width="120" height="80" as="geometry" />
        </mxCell>
        <mxCell id="KFF7oI3oYcerpHkxQwP5-200" value="Setup EHL based&amp;nbsp;&lt;br&gt;on-prem environment&amp;nbsp;" style="shape=callout;whiteSpace=wrap;html=1;perimeter=calloutPerimeter;fontSize=13;direction=west;" vertex="1" parent="myIwbRaZVC_E4C9uunCO-1">
          <mxGeometry x="-26" y="3015" width="120" height="80" as="geometry" />
        </mxCell>
        <mxCell id="KFF7oI3oYcerpHkxQwP5-201" value="Q1: Updated QMS" style="shape=callout;whiteSpace=wrap;html=1;perimeter=calloutPerimeter;fontSize=13;direction=west;" vertex="1" parent="myIwbRaZVC_E4C9uunCO-1">
          <mxGeometry x="323.46999999999997" y="3028.75" width="120" height="80" as="geometry" />
        </mxCell>
        <mxCell id="KFF7oI3oYcerpHkxQwP5-202" value="Q2: Onboarding App guide" style="shape=callout;whiteSpace=wrap;html=1;perimeter=calloutPerimeter;fontSize=13;direction=west;" vertex="1" parent="myIwbRaZVC_E4C9uunCO-1">
          <mxGeometry x="586.72" y="3026" width="120" height="80" as="geometry" />
        </mxCell>
        <mxCell id="KFF7oI3oYcerpHkxQwP5-203" value="Q3: Test &lt;br&gt;Automation" style="shape=callout;whiteSpace=wrap;html=1;perimeter=calloutPerimeter;fontSize=13;direction=west;" vertex="1" parent="myIwbRaZVC_E4C9uunCO-1">
          <mxGeometry x="752.5500000000001" y="3028.75" width="120" height="80" as="geometry" />
        </mxCell>
        <mxCell id="KFF7oI3oYcerpHkxQwP5-204" value="CI1: Component level CI/CD" style="shape=callout;whiteSpace=wrap;html=1;perimeter=calloutPerimeter;fontSize=13;direction=west;" vertex="1" parent="myIwbRaZVC_E4C9uunCO-1">
          <mxGeometry x="926" y="3026" width="120" height="80" as="geometry" />
        </mxCell>
        <mxCell id="KFF7oI3oYcerpHkxQwP5-206" value="EV2: QA, Stage.Prod setup" style="shape=callout;whiteSpace=wrap;html=1;perimeter=calloutPerimeter;fontSize=13;direction=west;" vertex="1" parent="myIwbRaZVC_E4C9uunCO-1">
          <mxGeometry x="1237.47" y="3028.75" width="120" height="80" as="geometry" />
        </mxCell>
      </root>
    </mxGraphModel>
  </diagram>
</mxfile>
